<svg width="113" height="101" viewBox="0 0 113 101" fill="none" xmlns="http://www.w3.org/2000/svg">
<path d="M48.9131 34.0779C48.0062 34.0779 47.1676 33.8614 46.3975 33.4285C45.6318 32.9955 45.0234 32.4076 44.5723 31.6648C44.1257 30.9174 43.9023 30.1016 43.9023 29.2175C43.9023 28.3334 44.1257 27.5199 44.5723 26.7771C45.0234 26.0343 45.6318 25.4464 46.3975 25.0134C47.1676 24.5805 48.0062 24.364 48.9131 24.364C49.82 24.364 50.6585 24.5805 51.4287 25.0134C52.1989 25.4464 52.8073 26.0343 53.2539 26.7771C53.7051 27.5199 53.9307 28.3334 53.9307 29.2175C53.9307 30.1016 53.7051 30.9174 53.2539 31.6648C52.8027 32.4076 52.1921 32.9955 51.4219 33.4285C50.6562 33.8614 49.82 34.0779 48.9131 34.0779ZM48.9131 32.5125C49.5192 32.5125 50.0752 32.3689 50.5811 32.0818C51.0915 31.7947 51.4948 31.4005 51.791 30.8992C52.0872 30.3979 52.2354 29.8396 52.2354 29.2244C52.2354 28.6046 52.0872 28.044 51.791 27.5427C51.4948 27.0369 51.0915 26.6404 50.5811 26.3533C50.0752 26.0662 49.5192 25.9226 48.9131 25.9226C48.307 25.9226 47.751 26.0662 47.2451 26.3533C46.7393 26.6404 46.3382 27.0369 46.042 27.5427C45.7503 28.044 45.6045 28.6046 45.6045 29.2244C45.6045 29.8396 45.7526 30.3979 46.0488 30.8992C46.3451 31.4005 46.7461 31.7947 47.252 32.0818C47.7578 32.3689 48.3115 32.5125 48.9131 32.5125ZM59.1902 34.0916C58.5066 34.0916 57.8868 33.9252 57.3309 33.5925C56.7794 33.2598 56.3465 32.8087 56.032 32.239C55.7176 31.6694 55.5604 31.045 55.5604 30.366C55.5604 29.6915 55.7176 29.0694 56.032 28.4998C56.3465 27.9301 56.7794 27.4789 57.3309 27.1462C57.8868 26.809 58.5066 26.6404 59.1902 26.6404C59.7781 26.6404 60.3136 26.7566 60.7967 26.989C61.2798 27.2169 61.6831 27.5359 62.0066 27.946C62.3302 28.3516 62.5581 28.8142 62.6902 29.3337H61.0018C60.8468 28.9555 60.6098 28.6684 60.2908 28.4724C59.9764 28.2764 59.6118 28.1785 59.1971 28.1785C58.8507 28.1785 58.5249 28.2673 58.2195 28.4451C57.9142 28.6182 57.6681 28.8712 57.4812 29.2039C57.2944 29.5365 57.201 29.9239 57.201 30.366C57.201 30.8126 57.2944 31.2022 57.4812 31.5349C57.6681 31.863 57.9142 32.116 58.2195 32.2937C58.5249 32.4714 58.8507 32.5603 59.1971 32.5603C59.6163 32.5603 59.9855 32.4578 60.3045 32.2527C60.6235 32.0431 60.8559 31.7286 61.0018 31.3093H62.6834C62.5604 31.8516 62.337 32.3347 62.0135 32.7585C61.6945 33.1778 61.2911 33.5059 60.8035 33.7429C60.3159 33.9753 59.7781 34.0916 59.1902 34.0916ZM67.485 33.8796C66.815 33.8796 66.259 33.6951 65.817 33.3259C65.3749 32.9522 65.1539 32.2458 65.1539 31.2068V28.2742H63.6979V26.8523H65.1539V24.7947L66.8082 24.781V26.8523H68.9137V28.2742H66.8082V31.282C66.8082 32.0977 67.1477 32.5056 67.8268 32.5056H68.9137V33.8796H67.485Z" fill="white"/>
<rect x="1" y="12.815" width="110.903" height="86.7097" stroke="white" stroke-width="2"/>
<line x1="15.6289" y1="11.815" x2="15.6289" y2="0.52465" stroke="white"/>
<line x1="96.2744" y1="11.815" x2="96.2744" y2="0.52465" stroke="white"/>
<rect x="10.6777" y="45.8795" width="6.06452" height="6.06452" stroke="white" stroke-width="2"/>
<rect x="9.67773" y="57.7826" width="8.06452" height="8.06452" fill="#EE7E22"/>
<rect x="9.67773" y="70.6858" width="8.06452" height="8.06452" fill="#EE7E22"/>
<rect x="10.6777" y="84.5891" width="6.06452" height="6.06452" stroke="white" stroke-width="2"/>
<rect x="25.1943" y="45.8794" width="6.06452" height="6.06452" stroke="white" stroke-width="2"/>
<rect x="24.1943" y="57.7826" width="8.06452" height="8.06452" fill="#EE7E22"/>
<rect x="24.1943" y="70.6858" width="8.06452" height="8.06452" fill="#EE7E22"/>
<rect x="25.1943" y="84.5891" width="6.06452" height="6.06452" stroke="white" stroke-width="2"/>
<rect x="39.71" y="45.8794" width="6.06452" height="6.06452" stroke="white" stroke-width="2"/>
<rect x="38.71" y="57.7826" width="8.06452" height="8.06452" fill="#EE7E22"/>
<rect x="38.71" y="70.6858" width="8.06452" height="8.06452" fill="#EE7E22"/>
<rect x="39.71" y="84.5891" width="6.06452" height="6.06452" stroke="white" stroke-width="2"/>
<rect x="53.2266" y="44.8794" width="8.06452" height="8.06452" fill="#EE7E22"/>
<rect x="53.2266" y="57.7826" width="8.06452" height="8.06452" fill="#EE7E22"/>
<rect x="54.2266" y="71.6858" width="6.06452" height="6.06452" stroke="white" stroke-width="2"/>
<rect x="54.2266" y="84.5891" width="6.06452" height="6.06452" stroke="white" stroke-width="2"/>
<rect x="67.7422" y="44.8794" width="8.06452" height="8.06452" fill="#EE7E22"/>
<rect x="67.7422" y="57.7826" width="8.06452" height="8.06452" fill="#EE7E22"/>
<rect x="68.7422" y="71.6858" width="6.06452" height="6.06452" stroke="white" stroke-width="2"/>
<rect x="68.7422" y="84.5891" width="6.06452" height="6.06452" stroke="white" stroke-width="2"/>
<rect x="82.2588" y="44.8794" width="8.06452" height="8.06452" fill="#EE7E22"/>
<rect x="82.2588" y="57.7826" width="8.06452" height="8.06452" fill="#EE7E22"/>
<rect x="83.2588" y="71.6858" width="6.06452" height="6.06452" stroke="white" stroke-width="2"/>
<rect x="83.2588" y="84.5891" width="6.06452" height="6.06452" stroke="white" stroke-width="2"/>
<rect x="96.7744" y="44.8794" width="8.06452" height="8.06452" fill="#EE7E22"/>
<rect x="96.7744" y="57.7826" width="8.06452" height="8.06452" fill="#EE7E22"/>
<rect x="97.7744" y="71.6858" width="6.06452" height="6.06452" stroke="white" stroke-width="2"/>
<rect x="97.7744" y="84.5891" width="6.06452" height="6.06452" stroke="white" stroke-width="2"/>
</svg>
