<svg width="160" height="160" viewBox="0 0 160 160" fill="none" xmlns="http://www.w3.org/2000/svg">
<path fill-rule="evenodd" clip-rule="evenodd" d="M11.0625 120.067C-10.9728 81.9005 2.1039 33.0976 40.2701 11.0623C78.4363 -10.9729 127.239 2.10378 149.274 40.27C171.31 78.4361 158.233 127.239 120.067 149.274C81.9006 171.31 33.0977 158.233 11.0625 120.067ZM41.2701 12.7944C4.06049 34.2774 -8.68846 81.8571 12.7945 119.067C34.2775 156.276 81.8572 169.025 119.067 147.542C156.276 126.059 169.025 78.4796 147.542 41.27C126.059 4.06036 78.4797 -8.68859 41.2701 12.7944Z" fill="white"/>
<path d="M81 47L87.3143 64.756L104.335 56.6655L96.244 73.6857L114 80L96.244 86.3143L104.335 103.335L87.3143 95.244L81 113L74.6857 95.244L57.6655 103.335L65.756 86.3143L48 80L65.756 73.6857L57.6655 56.6655L74.6857 64.756L81 47Z" fill="#FFC75A"/>
<path d="M58.575 37.0046C61.1287 35.4906 62.0987 32.8513 60.861 30.7778C59.929 29.1919 58.2962 28.6242 56.4823 29.3529L56.4244 29.2551C57.5325 28.144 57.7732 26.6142 56.934 25.2127C55.8498 23.3702 53.41 22.6948 51.0029 24.1219C48.7059 25.4838 47.6831 27.9645 48.8282 30.0351L50.6549 28.952C50.0167 27.7782 50.6851 26.4406 51.913 25.7125C53.1898 24.9555 54.4868 25.2352 55.1653 26.3934C55.8886 27.5994 55.3881 28.9695 54.0013 29.7918L52.9444 30.4184L53.8572 31.9579L54.9141 31.3313C56.6491 30.3026 58.1726 30.5883 58.9187 31.8468C59.6395 33.0625 59.0716 34.5139 57.5993 35.3868C56.2431 36.1909 54.7733 36.1211 54.0407 35.0527L52.1224 36.1901C53.4116 38.1834 56.0458 38.5042 58.575 37.0046Z" fill="white"/>
<path d="M68.5009 32.2922L68.99 28.2473L74.5427 27.0431L76.6565 30.5236L78.9332 30.0299L70.735 16.9242L68.2571 17.4616L66.2243 32.786L68.5009 32.2922ZM69.2233 26.3072L70.0039 19.7862L70.115 19.7621L73.5267 25.3739L69.2233 26.3072Z" fill="white"/>
<path d="M95.9574 16.9253L84.8164 15.5831L83.0766 30.0242L85.2484 30.2858L86.7639 17.7063L93.5614 18.5252L92.0459 31.1047L94.2177 31.3664L95.9574 16.9253Z" fill="white"/>
<path d="M106.389 20.1263L99.8549 33.1217L101.657 34.0278L113.054 27.8181L113.175 27.8787L108.383 37.4095L110.344 38.3953L116.878 25.3999L115.063 24.4875L103.653 30.7067L103.532 30.6461L108.33 21.1026L106.389 20.1263Z" fill="white"/>
<path d="M130.49 44.5004C132.445 42.0306 132.138 39.0064 130.058 36.7408C127.513 33.9677 123.558 33.8285 120.13 36.9742C116.703 40.12 116.494 44.062 119.049 46.8456C121.21 49.2001 124.266 49.5672 126.707 47.9727L125.214 46.3354C123.588 47.3164 121.778 46.8569 120.534 45.5017C118.849 43.6652 118.983 40.9867 121.605 38.5806C124.205 36.1937 126.902 36.2639 128.597 38.1109C129.85 39.4765 130.133 41.3284 128.991 42.8679L130.49 44.5004Z" fill="white"/>
<path d="M125.993 56.2606L130.058 55.9902L132.272 61.2229L129.245 63.9461L130.152 66.0915L141.508 55.6028L140.52 53.2677L125.085 54.1152L125.993 56.2606ZM132.008 55.8593L138.56 55.4158L138.605 55.5204L133.724 59.9147L132.008 55.8593Z" fill="white"/>
<path d="M143.507 69.0157L143.864 73.5329L131.247 74.5286L131.419 76.7093L144.036 75.7136L144.393 80.2379L146.276 80.0893L145.391 68.8671L143.507 69.0157Z" fill="white"/>
<path d="M139.061 90.2524L144.759 91.6469L145.282 89.5083L131.154 86.0508L129.859 91.3421C129.089 94.4879 130.401 96.7173 132.934 97.33C135.457 97.9548 137.519 96.5509 138.289 93.4051L139.061 90.2524ZM137.267 89.8135L136.495 92.9662C136.048 94.7944 134.753 95.545 133.477 95.2326C132.166 94.9119 131.205 93.6092 131.652 91.7811L132.424 88.6284L137.267 89.8135Z" fill="white"/>
<path d="M127.939 116.81C130.814 118.099 133.67 117.058 135.355 114.486C137.418 111.337 136.582 107.469 132.691 104.919C128.8 102.37 124.927 103.135 122.857 106.295C121.105 108.969 121.499 112.021 123.644 113.995L124.865 112.146C123.515 110.811 123.516 108.944 124.524 107.405C125.89 105.32 128.52 104.793 131.496 106.743C134.448 108.678 135.042 111.309 133.668 113.406C132.652 114.956 130.927 115.685 129.154 114.956L127.939 116.81Z" fill="white"/>
<path d="M108.093 120.913L116.904 132.486L121.029 129.345C123.714 127.301 123.896 124.797 122.274 122.667C121.09 121.113 119.485 120.469 117.666 121.024L116.665 114.386L114.676 115.9L115.66 122.07C115.62 122.1 115.586 122.126 115.547 122.156L113.173 123.963L109.839 119.583L108.093 120.913ZM114.318 125.466L116.533 123.779C118.234 122.484 119.522 122.699 120.516 124.005C121.514 125.316 121.426 126.677 119.703 127.989L117.51 129.659L114.318 125.466Z" fill="white"/>
</svg>
