<svg width="163" height="129" viewBox="0 0 163 129" fill="none" xmlns="http://www.w3.org/2000/svg">
<path d="M62.0752 69.5403C62.0752 71.3958 61.6357 73.0152 60.7568 74.3987C59.8942 75.7821 58.6165 76.8808 56.9238 77.6946C55.2311 78.5084 53.1885 78.9804 50.7959 79.1106V84.262H49.0137V79.135C46.5072 79.0862 44.3506 78.5898 42.5439 77.6458C40.7373 76.7017 39.3701 75.4973 38.4424 74.0325C37.5146 72.5514 37.0508 70.997 37.0508 69.3694H38.9551C38.9551 70.7366 39.3783 72.0387 40.2246 73.2756C41.0872 74.5126 42.3079 75.5136 43.8867 76.2786C45.4818 77.0435 47.3291 77.426 49.4287 77.426C52.7979 77.426 55.4264 76.7587 57.3145 75.4241C59.2188 74.0732 60.1709 72.1119 60.1709 69.5403C60.1709 67.2128 59.2594 65.4957 57.4365 64.3889C55.6136 63.2659 53.1559 62.5334 50.0635 62.1917C47.8174 61.9312 45.8236 61.5243 44.082 60.9709C42.3405 60.4176 40.8757 59.5387 39.6875 58.3342C38.5156 57.1135 37.9297 55.5022 37.9297 53.5002C37.9297 51.954 38.2878 50.5299 39.0039 49.2278C39.7363 47.9094 40.9245 46.8271 42.5684 45.9807C44.2285 45.1344 46.377 44.6868 49.0137 44.6379V39.4866H50.7959V44.6868C52.8467 44.8333 54.6045 45.3053 56.0693 46.1028C57.5505 46.884 58.6735 47.9013 59.4385 49.1545C60.2035 50.4078 60.5859 51.8157 60.5859 53.3782H58.7061C58.7061 51.9459 58.3236 50.7089 57.5586 49.6672C56.7936 48.6093 55.7031 47.8036 54.2871 47.2502C52.8874 46.6806 51.2516 46.3958 49.3799 46.3958C45.9945 46.3958 43.5531 47.0712 42.0557 48.4221C40.5583 49.7568 39.8096 51.4495 39.8096 53.5002C39.8096 55.6161 40.721 57.2193 42.5439 58.3098C44.3669 59.384 47.0117 60.1002 50.4785 60.4583C52.4967 60.6861 54.3359 61.0767 55.9961 61.6301C57.6725 62.1672 59.1048 63.0787 60.293 64.3645C61.4811 65.634 62.0752 67.3593 62.0752 69.5403ZM93.5791 69.5403C93.5791 71.3958 93.1396 73.0152 92.2607 74.3987C91.3981 75.7821 90.1204 76.8808 88.4277 77.6946C86.735 78.5084 84.6924 78.9804 82.2998 79.1106V84.262H80.5176V79.135C78.0111 79.0862 75.8545 78.5898 74.0479 77.6458C72.2412 76.7017 70.874 75.4973 69.9463 74.0325C69.0186 72.5514 68.5547 70.997 68.5547 69.3694H70.459C70.459 70.7366 70.8822 72.0387 71.7285 73.2756C72.5911 74.5126 73.8118 75.5136 75.3906 76.2786C76.9857 77.0435 78.833 77.426 80.9326 77.426C84.3018 77.426 86.9303 76.7587 88.8184 75.4241C90.7227 74.0732 91.6748 72.1119 91.6748 69.5403C91.6748 67.2128 90.7633 65.4957 88.9404 64.3889C87.1175 63.2659 84.6598 62.5334 81.5674 62.1917C79.3213 61.9312 77.3275 61.5243 75.5859 60.9709C73.8444 60.4176 72.3796 59.5387 71.1914 58.3342C70.0195 57.1135 69.4336 55.5022 69.4336 53.5002C69.4336 51.954 69.7917 50.5299 70.5078 49.2278C71.2402 47.9094 72.4284 46.8271 74.0723 45.9807C75.7324 45.1344 77.8809 44.6868 80.5176 44.6379V39.4866H82.2998V44.6868C84.3506 44.8333 86.1084 45.3053 87.5732 46.1028C89.0544 46.884 90.1774 47.9013 90.9424 49.1545C91.7074 50.4078 92.0898 51.8157 92.0898 53.3782H90.21C90.21 51.9459 89.8275 50.7089 89.0625 49.6672C88.2975 48.6093 87.207 47.8036 85.791 47.2502C84.3913 46.6806 82.7555 46.3958 80.8838 46.3958C77.4984 46.3958 75.057 47.0712 73.5596 48.4221C72.0622 49.7568 71.3135 51.4495 71.3135 53.5002C71.3135 55.6161 72.2249 57.2193 74.0479 58.3098C75.8708 59.384 78.5156 60.1002 81.9824 60.4583C84.0007 60.6861 85.8398 61.0767 87.5 61.6301C89.1764 62.1672 90.6087 63.0787 91.7969 64.3645C92.985 65.634 93.5791 67.3593 93.5791 69.5403ZM125.083 69.5403C125.083 71.3958 124.644 73.0152 123.765 74.3987C122.902 75.7821 121.624 76.8808 119.932 77.6946C118.239 78.5084 116.196 78.9804 113.804 79.1106V84.262H112.021V79.135C109.515 79.0862 107.358 78.5898 105.552 77.6458C103.745 76.7017 102.378 75.4973 101.45 74.0325C100.522 72.5514 100.059 70.997 100.059 69.3694H101.963C101.963 70.7366 102.386 72.0387 103.232 73.2756C104.095 74.5126 105.316 75.5136 106.895 76.2786C108.49 77.0435 110.337 77.426 112.437 77.426C115.806 77.426 118.434 76.7587 120.322 75.4241C122.227 74.0732 123.179 72.1119 123.179 69.5403C123.179 67.2128 122.267 65.4957 120.444 64.3889C118.621 63.2659 116.164 62.5334 113.071 62.1917C110.825 61.9312 108.831 61.5243 107.09 60.9709C105.348 60.4176 103.883 59.5387 102.695 58.3342C101.523 57.1135 100.938 55.5022 100.938 53.5002C100.938 51.954 101.296 50.5299 102.012 49.2278C102.744 47.9094 103.932 46.8271 105.576 45.9807C107.236 45.1344 109.385 44.6868 112.021 44.6379V39.4866H113.804V44.6868C115.854 44.8333 117.612 45.3053 119.077 46.1028C120.558 46.884 121.681 47.9013 122.446 49.1545C123.211 50.4078 123.594 51.8157 123.594 53.3782H121.714C121.714 51.9459 121.331 50.7089 120.566 49.6672C119.801 48.6093 118.711 47.8036 117.295 47.2502C115.895 46.6806 114.259 46.3958 112.388 46.3958C109.002 46.3958 106.561 47.0712 105.063 48.4221C103.566 49.7568 102.817 51.4495 102.817 53.5002C102.817 55.6161 103.729 57.2193 105.552 58.3098C107.375 59.384 110.02 60.1002 113.486 60.4583C115.505 60.6861 117.344 61.0767 119.004 61.6301C120.68 62.1672 122.113 63.0787 123.301 64.3645C124.489 65.634 125.083 67.3593 125.083 69.5403Z" fill="white"/>
<rect x="1" y="25.5247" width="161" height="75" stroke="white" stroke-width="2"/>
<line x1="11" y1="39.5247" x2="11" y2="87.5247" stroke="white" stroke-width="2"/>
<line x1="154" y1="39.5247" x2="154" y2="87.5247" stroke="white" stroke-width="2"/>
<line x1="145.768" y1="2.29243" x2="21.7678" y2="126.292" stroke="#FF7337" stroke-width="5"/>
</svg>
