<svg width="110" height="101" viewBox="0 0 110 101" fill="none" xmlns="http://www.w3.org/2000/svg">
<path fill-rule="evenodd" clip-rule="evenodd" d="M103.325 45.9873L94.8782 59.2613L87.3301 51.7131L88.7443 50.2989L94.5295 56.0841L101.638 44.9136L103.325 45.9873Z" fill="white"/>
<path fill-rule="evenodd" clip-rule="evenodd" d="M49.1481 53.3765C23.1089 53.3765 2 74.4855 2 100.525H0C0 73.3809 22.0044 51.3765 49.1481 51.3765C76.2919 51.3765 98.2963 73.3809 98.2963 100.525H96.2963C96.2963 74.4855 75.1873 53.3765 49.1481 53.3765Z" fill="white"/>
<path fill-rule="evenodd" clip-rule="evenodd" d="M49.1486 50.3765C62.3625 50.3765 73.0745 39.6645 73.0745 26.4506C73.0745 13.2367 62.3625 2.52466 49.1486 2.52466C35.9347 2.52466 25.2227 13.2367 25.2227 26.4506C25.2227 39.6645 35.9347 50.3765 49.1486 50.3765ZM49.1486 52.3765C63.4671 52.3765 75.0745 40.7691 75.0745 26.4506C75.0745 12.1321 63.4671 0.524658 49.1486 0.524658C34.8301 0.524658 23.2227 12.1321 23.2227 26.4506C23.2227 40.7691 34.8301 52.3765 49.1486 52.3765Z" fill="white"/>
<path fill-rule="evenodd" clip-rule="evenodd" d="M95.0736 62.9691C102.151 62.9691 107.888 57.2317 107.888 50.1543C107.888 43.0769 102.151 37.3395 95.0736 37.3395C87.9962 37.3395 82.2588 43.0769 82.2588 50.1543C82.2588 57.2317 87.9962 62.9691 95.0736 62.9691ZM95.0736 64.9691C103.256 64.9691 109.888 58.3363 109.888 50.1543C109.888 41.9723 103.256 35.3395 95.0736 35.3395C86.8916 35.3395 80.2588 41.9723 80.2588 50.1543C80.2588 58.3363 86.8916 64.9691 95.0736 64.9691Z" fill="white"/>
<path d="M86.1855 95.0062V62.3765C86.1855 62.3765 89.1485 65.3395 95.0744 65.3395C101 65.3395 103.963 62.3765 103.963 62.3765V95.0062L95.0744 85.6297L86.1855 95.0062Z" fill="#EE7E22"/>
</svg>
