<svg width="163" height="117" viewBox="0 0 163 117" fill="none" xmlns="http://www.w3.org/2000/svg">
<path d="M36.2397 19.0297V8.1718C36.2397 6.18118 38.5064 4.55249 41.2768 4.55249H152.091C154.861 4.55249 157.128 6.18118 157.128 8.1718V19.0297H36.2397Z" fill="#B4DD7F"/>
<path d="M152.091 84.1773H36.2397V19.0297H157.128V80.558C157.128 82.5577 154.874 84.1773 152.091 84.1773Z" fill="#E6E9ED"/>
<path d="M111.795 47.9842H147.054V76.9387H111.795V47.9842Z" fill="#FF826E"/>
<path d="M94.1654 109.512V113.132H23.6472V109.512C23.6472 107.522 25.9139 105.893 28.6842 105.893H38.7583H79.0544H89.1284C91.8988 105.893 94.1654 107.522 94.1654 109.512Z" fill="#969FAA"/>
<path d="M74.0173 95.0352L79.0544 105.893H38.7582L43.7953 95.0352H74.0173Z" fill="#969FAA"/>
<path d="M111.795 84.1773V87.7966C111.795 91.796 107.287 95.0352 101.721 95.0352H74.0174H43.7953H16.0917C10.5258 95.0352 6.0177 91.796 6.0177 87.7966V80.558H111.795V84.1773Z" fill="#AAB2BD"/>
<path d="M111.795 80.558H6.0177V44.3649C6.0177 40.3656 10.5258 37.1263 16.0917 37.1263H36.2398H101.721C107.287 37.1263 111.795 40.3656 111.795 44.3649V47.9842V76.9387V80.558Z" fill="#69D6F4"/>
<path d="M71.4988 44.3649H51.3508H21.1287C18.3583 44.3649 16.0917 45.9936 16.0917 47.9842V69.7C16.0917 71.6907 18.3583 73.3194 21.1287 73.3194H41.2767H71.4988C74.2692 73.3194 76.5358 71.6907 76.5358 69.7V47.9842C76.5358 45.9936 74.2692 44.3649 71.4988 44.3649Z" fill="#FCD770"/>
<path d="M152.091 2.7428H41.2767C37.1111 2.7428 33.7212 5.17859 33.7212 8.17176V35.3166H16.0917C9.14816 35.3166 3.49915 39.3756 3.49915 44.3649V87.7966C3.49915 92.7858 9.14816 96.8449 16.0917 96.8449H40.2996L36.9424 104.083H28.6842C24.5186 104.083 21.1287 106.519 21.1287 109.512V114.941H96.6839V109.512C96.6839 106.519 93.294 104.083 89.1284 104.083H80.8702L77.513 96.8449H101.721C108.664 96.8449 114.313 92.7858 114.313 87.7966V85.9869H152.091C156.257 85.9869 159.647 83.5511 159.647 80.558V8.17176C159.647 5.17859 156.257 2.7428 152.091 2.7428ZM41.2767 6.36211H152.091C153.479 6.36211 154.61 7.17464 154.61 8.17176V17.22H38.7582V8.17176C38.7582 7.17464 39.889 6.36211 41.2767 6.36211ZM16.0917 38.9359H101.721C105.887 38.9359 109.276 41.3717 109.276 44.3649V78.7483H8.53616V44.3649C8.53616 41.3717 11.9261 38.9359 16.0917 38.9359ZM114.313 49.7938H144.536V75.129H114.313V49.7938ZM91.6469 109.512V111.322H26.1657V109.512C26.1657 108.515 27.2965 107.703 28.6842 107.703H89.1284C90.5161 107.703 91.6469 108.515 91.6469 109.512ZM75.5587 104.083H42.2539L45.6111 96.8449H72.2015L75.5587 104.083ZM101.721 93.2255H16.0917C11.9261 93.2255 8.53616 90.7897 8.53616 87.7966V82.3676H109.276V87.7966C109.276 90.7897 105.887 93.2255 101.721 93.2255ZM152.091 82.3676H114.313V78.7483H149.573V46.1745H114.313V44.3649C114.313 39.3756 108.664 35.3166 101.721 35.3166H38.7582V20.8393H154.61V80.558C154.61 81.5551 153.479 82.3676 152.091 82.3676Z" fill="black"/>
<path d="M66.4619 85.9869H71.4989V89.6062H66.4619V85.9869Z" fill="black"/>
<path d="M56.3878 85.9869H61.4248V89.6062H56.3878V85.9869Z" fill="black"/>
<path d="M46.3138 85.9869H51.3508V89.6062H46.3138V85.9869Z" fill="black"/>
<path d="M43.7953 9.98145H48.8323V13.6008H43.7953V9.98145Z" fill="black"/>
<path d="M53.8693 9.98145H58.9064V13.6008H53.8693V9.98145Z" fill="black"/>
<path d="M63.9433 9.98145H68.9803V13.6008H63.9433V9.98145Z" fill="black"/>
<path d="M43.7953 24.4587H48.8323V28.078H43.7953V24.4587Z" fill="black"/>
<path d="M53.8693 24.4587H149.573V28.078H53.8693V24.4587Z" fill="black"/>
<path d="M119.35 31.6973H149.573V35.3166H119.35V31.6973Z" fill="black"/>
<path d="M119.35 38.9359H149.573V42.5552H119.35V38.9359Z" fill="black"/>
<path d="M21.1287 75.129H71.4989C75.6645 75.129 79.0544 72.6932 79.0544 69.7001V47.9842C79.0544 44.991 75.6645 42.5552 71.4989 42.5552H21.1287C16.9631 42.5552 13.5732 44.991 13.5732 47.9842V69.7001C13.5732 72.6932 16.9631 75.129 21.1287 75.129ZM18.6102 47.9842C18.6102 46.9871 19.741 46.1745 21.1287 46.1745H71.4989C72.8866 46.1745 74.0174 46.9871 74.0174 47.9842V69.7001C74.0174 70.6972 72.8866 71.5097 71.4989 71.5097H21.1287C19.741 71.5097 18.6102 70.6972 18.6102 69.7001V47.9842Z" fill="black"/>
<path d="M38.9025 69.0982L48.9692 47.3753L53.7493 48.519L43.6826 70.2419L38.9025 69.0982Z" fill="black"/>
<path d="M58.1684 67.3601L70.023 58.8421L58.1684 50.324L54.6072 52.8829L62.9007 58.8421L54.6072 64.8013L58.1684 67.3601Z" fill="black"/>
<path d="M38.0203 64.8013L29.7269 58.8421L38.0203 52.8829L34.4592 50.324L22.6046 58.8421L34.4592 67.3601L38.0203 64.8013Z" fill="black"/>
<path d="M84.0914 42.5552H104.239V46.1745H84.0914V42.5552Z" fill="black"/>
<path d="M84.0914 49.7938H104.239V53.4131H84.0914V49.7938Z" fill="black"/>
<path d="M84.0914 57.0325H104.239V60.6518H84.0914V57.0325Z" fill="black"/>
<path d="M84.0914 64.2711H104.239V67.8904H84.0914V64.2711Z" fill="black"/>
<path d="M89.1284 71.5097H94.1654V75.129H89.1284V71.5097Z" fill="black"/>
<path d="M99.2024 71.5097H104.239V75.129H99.2024V71.5097Z" fill="black"/>
</svg>
