<svg width="100" height="100" viewBox="0 0 100 100" fill="none" xmlns="http://www.w3.org/2000/svg">
<path d="M30.65 3.96506C34.0599 1.38263 38.2226 -0.0102155 42.5 5.64097e-05C43.7 5.64097e-05 44.655 0.625056 45.21 1.05506C45.83 1.54506 46.41 2.17006 46.93 2.79506C47.2987 3.24288 47.5002 3.80498 47.5 4.38506V22.5001H42.075C41.4853 20.832 40.3248 19.4262 38.7988 18.531C37.2728 17.6358 35.4794 17.3089 33.7357 17.6081C31.9919 17.9072 30.4101 18.8132 29.2697 20.1659C28.1294 21.5186 27.5039 23.2308 27.5039 25.0001C27.5039 26.7693 28.1294 28.4815 29.2697 29.8342C30.4101 31.1869 31.9919 32.0929 33.7357 32.392C35.4794 32.6912 37.2728 32.3643 38.7988 31.4691C40.3248 30.5739 41.4853 29.1681 42.075 27.5001H47.5V74.5751C47.5002 74.9452 47.4183 75.3108 47.2601 75.6454C47.1018 75.9801 46.8713 76.2754 46.585 76.5101C44.275 78.4001 41.185 80.0001 37.5 80.0001C31.57 80.0001 27.155 77.0101 24.3 73.4351C22.2488 70.8879 20.8439 67.8825 20.205 64.6751C18.2624 64.1571 16.4613 63.2087 14.935 61.9001C12.175 59.5351 10 55.7001 10 50.0001C10 47.2151 10.185 44.7001 10.6 42.5001H26.25C29.43 42.5001 32.05 44.8751 32.45 47.9451C30.7872 48.5468 29.3906 49.7167 28.5066 51.2482C27.6226 52.7797 27.3082 54.5743 27.6189 56.3151C27.9296 58.0559 28.8453 59.6309 30.2045 60.7621C31.5636 61.8933 33.2788 62.5079 35.0471 62.4973C36.8153 62.4867 38.523 61.8517 39.8685 60.7044C41.2141 59.557 42.111 57.9711 42.4008 56.2268C42.6906 54.4824 42.3548 52.6917 41.4526 51.1709C40.5504 49.65 39.1398 48.4969 37.47 47.9151C37.2593 45.0836 35.9857 42.4365 33.9047 40.5048C31.8237 38.5732 29.0893 37.4998 26.25 37.5001H12.205C12.97 36.0101 13.995 34.7501 15.33 33.8551C15.6677 33.6315 16.0221 33.4343 16.39 33.2651C14.97 29.1051 15.34 24.2351 16.71 20.4101C17.585 17.9501 18.975 15.6251 20.885 14.0751C22.145 13.0501 23.645 12.3751 25.285 12.2451C26.005 8.83006 28.03 6.00506 30.655 3.96506H30.65ZM52.5 62.5001H56.25C59.2337 62.5001 62.0952 61.3148 64.2049 59.205C66.3147 57.0952 67.5 54.2337 67.5 51.2501V42.0751C69.168 41.4853 70.5739 40.3249 71.4691 38.7989C72.3643 37.2728 72.6912 35.4795 72.392 33.7357C72.0928 31.992 71.1868 30.4102 69.8342 29.2698C68.4815 28.1294 66.7692 27.504 65 27.504C63.2308 27.504 61.5185 28.1294 60.1658 29.2698C58.8132 30.4102 57.9072 31.992 57.608 33.7357C57.3088 35.4795 57.6357 37.2728 58.5309 38.7989C59.4261 40.3249 60.832 41.4853 62.5 42.0751V51.2501C62.5 54.7001 59.7 57.5001 56.25 57.5001H52.5V4.38506C52.4998 3.80498 52.7013 3.24288 53.07 2.79506C53.585 2.17006 54.17 1.54506 54.79 1.05506C55.34 0.625056 56.295 5.64097e-05 57.5 5.64097e-05C61.7774 -0.0102155 65.9401 1.38263 69.35 3.96506C71.975 6.00506 74 8.83006 74.715 12.2451C76.355 12.3701 77.855 13.0501 79.115 14.0751C81.025 15.6251 82.415 17.9501 83.29 20.4101C84.66 24.2351 85.03 29.1101 83.61 33.2601C83.97 33.4301 84.325 33.6301 84.67 33.8601C86.045 34.7751 87.09 36.0851 87.86 37.6301C89.375 40.6551 90 44.8751 90 50.0001C90 55.7051 87.825 59.5351 85.065 61.9001C83.5387 63.2087 81.7376 64.1571 79.795 64.6751C79.295 67.4651 77.895 70.6951 75.7 73.4351C72.85 77.0101 68.43 80.0001 62.5 80.0001C58.82 80.0001 55.725 78.4001 53.42 76.5101C53.1328 76.2759 52.9013 75.9808 52.7422 75.6461C52.5831 75.3115 52.5004 74.9456 52.5 74.5751V62.5001ZM35 22.5001C34.337 22.5001 33.7011 22.7635 33.2322 23.2323C32.7634 23.7011 32.5 24.337 32.5 25.0001C32.5 25.6631 32.7634 26.299 33.2322 26.7678C33.7011 27.2367 34.337 27.5001 35 27.5001C35.663 27.5001 36.2989 27.2367 36.7678 26.7678C37.2366 26.299 37.5 25.6631 37.5 25.0001C37.5 24.337 37.2366 23.7011 36.7678 23.2323C36.2989 22.7635 35.663 22.5001 35 22.5001ZM35 52.5001C34.337 52.5001 33.7011 52.7634 33.2322 53.2323C32.7634 53.7011 32.5 54.337 32.5 55.0001C32.5 55.6631 32.7634 56.299 33.2322 56.7678C33.7011 57.2367 34.337 57.5001 35 57.5001C35.663 57.5001 36.2989 57.2367 36.7678 56.7678C37.2366 56.299 37.5 55.6631 37.5 55.0001C37.5 54.337 37.2366 53.7011 36.7678 53.2323C36.2989 52.7634 35.663 52.5001 35 52.5001ZM65 37.5001C65.663 37.5001 66.2989 37.2367 66.7678 36.7678C67.2366 36.299 67.5 35.6631 67.5 35.0001C67.5 34.337 67.2366 33.7011 66.7678 33.2323C66.2989 32.7634 65.663 32.5001 65 32.5001C64.337 32.5001 63.7011 32.7634 63.2322 33.2323C62.7634 33.7011 62.5 34.337 62.5 35.0001C62.5 35.6631 62.7634 36.299 63.2322 36.7678C63.7011 37.2367 64.337 37.5001 65 37.5001Z" fill="white"/>
</svg>
