<svg width="100" height="100" viewBox="0 0 100 100" fill="none" xmlns="http://www.w3.org/2000/svg">
<g clip-path="url(#clip0_16:144)">
<path d="M97.4611 73.8281L5.76189 99.707C4.72022 99.9674 3.67855 99.6419 2.63689 98.7305C1.59522 97.819 0.846523 96.582 0.390794 95.0195C-0.0649351 93.457 -0.0974872 92.0247 0.293138 90.7227C0.683763 89.4206 1.43246 88.6393 2.53923 88.3789L94.2384 62.5C95.2801 62.2396 96.3218 62.5651 97.3634 63.4766C98.4051 64.388 99.1538 65.625 99.6095 67.1875C100.065 68.75 100.098 70.1823 99.7072 71.4844C99.3166 72.7865 98.5679 73.5677 97.4611 73.8281ZM81.2502 58.7891C81.1851 59.5052 81.0548 60.3841 80.8595 61.4258L62.1095 66.6992C62.37 64.9414 62.5002 63.5091 62.5002 62.4023C62.5002 52.2461 57.2918 43.9128 46.8752 37.4023C46.8752 37.5326 46.7775 38.1185 46.5822 39.1602C46.3869 40.2018 46.2241 41.0156 46.0939 41.6016C45.9637 42.1875 45.7358 43.099 45.4103 44.3359C45.0848 45.5729 44.7593 46.6309 44.4338 47.5098C44.1082 48.3887 43.7176 49.4629 43.2619 50.7324C42.8062 52.002 42.2853 53.125 41.6994 54.1016C41.1134 55.0781 40.4624 56.1035 39.7463 57.1777C39.0301 58.252 38.2163 59.2285 37.3049 60.1074C36.3934 60.9863 35.4168 61.7513 34.3752 62.4023C33.3335 63.0534 32.4871 64.1927 31.8361 65.8203L23.047 63.3789C22.9819 63.3789 22.9331 63.3952 22.9006 63.4277L22.8517 63.4766L22.9494 63.3789L18.9455 62.207C19.2059 59.9935 20.2801 56.9499 22.1681 53.0762C24.0562 49.2025 25.0002 46.0612 25.0002 43.6523C25.0002 40.5924 24.7886 37.5488 24.3654 34.5215C23.9422 31.4941 23.4377 28.9225 22.8517 26.8066C22.2658 24.6908 21.6636 22.7865 21.0451 21.0938C20.4266 19.401 19.8895 18.1315 19.4338 17.2852L18.8478 16.0156C25.1629 18.6849 31.6733 22.4609 38.3791 27.3438C38.4442 27.0833 38.6232 26.5625 38.9162 25.7812C39.2091 25 39.4045 24.4954 39.5021 24.2676C39.5998 24.0397 39.7463 23.6003 39.9416 22.9492C40.1369 22.2982 40.2671 21.8099 40.3322 21.4844C40.3973 21.1589 40.4624 20.7357 40.5275 20.2148C40.5926 19.694 40.6252 19.1732 40.6252 18.6523C40.6252 15.6576 40.1043 12.5977 39.0627 9.47266C38.021 6.34766 36.9793 3.97135 35.9377 2.34375L34.4728 0C35.1239 0.260417 36.0353 0.667318 37.2072 1.2207C38.3791 1.77409 40.6414 2.99479 43.9943 4.88281C47.3472 6.77083 50.5047 8.75651 53.467 10.8398C56.4292 12.9232 59.6519 15.5924 63.1349 18.8477C66.618 22.1029 69.4989 25.4232 71.7775 28.8086L71.8752 28.9062C73.4377 26.888 75.521 25.0326 78.1252 23.3398C80.7293 21.6471 82.9429 20.4427 84.7658 19.7266L87.4025 18.6523C87.2072 18.9128 86.8979 19.2708 86.4748 19.7266C86.0516 20.1823 85.3029 21.1589 84.2287 22.6562C83.1545 24.1536 82.1942 25.6836 81.3478 27.2461C80.5015 28.8086 79.7039 30.778 78.9552 33.1543C78.2065 35.5306 77.7671 37.8581 77.6369 40.1367C80.2411 46.9727 81.4455 53.1901 81.2502 58.7891ZM22.8517 63.4766L22.2658 64.5508C22.2658 64.4206 22.4611 64.0625 22.8517 63.4766ZM19.6291 78.7109L2.53923 73.8281C1.43246 73.5677 0.683763 72.7865 0.293138 71.4844C-0.0974872 70.1823 -0.0649351 68.75 0.390794 67.1875C0.846523 65.625 1.59522 64.388 2.63689 63.4766C3.67855 62.5651 4.72022 62.2396 5.76189 62.5L41.3088 72.5586L19.6291 78.7109ZM97.4611 88.3789C98.5679 88.6393 99.3166 89.4206 99.7072 90.7227C100.098 92.0247 100.065 93.457 99.6095 95.0195C99.1538 96.582 98.4051 97.819 97.3634 98.7305C96.3218 99.6419 95.2801 99.9674 94.2384 99.707L57.1291 89.2578L78.8088 83.1055L97.4611 88.3789Z" fill="white"/>
</g>
<defs>
<clipPath id="clip0_16:144">
<rect width="100" height="99.8047" fill="white"/>
</clipPath>
</defs>
</svg>
