<svg width="100" height="100" viewBox="0 0 100 100" fill="none" xmlns="http://www.w3.org/2000/svg">
<path d="M52.7779 83.3334H11.1112C9.63779 83.3334 8.22472 82.7481 7.18285 81.7062C6.14098 80.6644 5.55566 79.2513 5.55566 77.7779V22.2223C5.55566 20.7489 6.14098 19.3358 7.18285 18.2939C8.22472 17.2521 9.63779 16.6667 11.1112 16.6667H88.889C90.3624 16.6667 91.7755 17.2521 92.8174 18.2939C93.8592 19.3358 94.4445 20.7489 94.4445 22.2223V51.0279C90.7439 46.3146 85.3609 43.2187 79.426 42.3902C73.4911 41.5617 67.4661 43.0652 62.6162 46.5849C57.7664 50.1045 54.469 55.3665 53.4166 61.2658C52.3642 67.1651 53.6387 73.2427 56.9723 78.2223L54.389 81.389L52.7779 83.3334ZM19.4446 33.3334V37.7779H66.6668V33.3334H19.4446ZM19.4446 48.889H50.0001V44.4445H19.4446V48.889ZM19.4446 68.3334H47.2223V63.889H19.4446V68.3334Z" fill="white"/>
<path d="M93.9723 65.5279C93.9798 62.599 93.26 59.7141 91.8777 57.1319C90.4954 54.5498 88.4937 52.3511 86.0522 50.7332C83.6107 49.1153 80.8058 48.1288 77.8891 47.8621C74.9723 47.5954 72.035 48.0569 69.3406 49.2052C66.6462 50.3535 64.279 52.1527 62.4513 54.4414C60.6236 56.7301 59.3926 59.4367 58.8688 62.3183C58.345 65.2 58.5446 68.1666 59.4499 70.9521C60.3552 73.7376 61.9378 76.2548 64.0557 78.2779L58.6668 84.8612L61.1668 94.889L71.3334 82.5001C74.5516 83.4517 77.9764 83.4517 81.1946 82.5001L91.3612 94.889L93.8612 84.8612L88.4723 78.2779C90.2053 76.6364 91.5865 74.6597 92.532 72.4679C93.4775 70.2761 93.9675 67.9149 93.9723 65.5279ZM64.139 65.5279C64.1059 63.1202 64.7897 60.7571 66.1033 58.7391C67.4168 56.7211 69.3009 55.1393 71.5159 54.1949C73.7309 53.2505 76.1767 52.9863 78.5422 53.4356C80.9078 53.885 83.0863 55.0278 84.8007 56.7186C86.5151 58.4095 87.6878 60.5719 88.1699 62.9311C88.6519 65.2902 88.4215 67.7395 87.5078 69.9673C86.5942 72.1951 85.0386 74.1009 83.0389 75.4422C81.0392 76.7836 78.6858 77.4999 76.2779 77.5001C73.0875 77.5076 70.0237 76.2531 67.7548 74.0102C65.4859 71.7673 64.1961 68.7181 64.1668 65.5279H64.139Z" fill="white"/>
</svg>
