<svg width="143" height="111" viewBox="0 0 143 111" fill="none" xmlns="http://www.w3.org/2000/svg">
<g clip-path="url(#clip0_21:179)">
<path d="M134.648 8.26752H9.27284C6.22168 8.26752 3.72528 10.2045 3.72528 12.5719V14.7239H140.196V12.5719C140.196 10.2045 137.699 8.26752 134.648 8.26752Z" fill="#F0F0FA"/>
<path d="M140.196 14.7239H3.72528V77.7496H56.2687L59.0019 79.2906H71.9605H84.919L87.6523 77.7496H140.196V14.7239Z" fill="#B2F6FF"/>
<path d="M56.2687 77.7496H3.72528V81.4428C3.72528 83.8102 6.22168 85.7472 9.27284 85.7472H60.8654H83.0556H134.648C137.699 85.7472 140.196 83.8102 140.196 81.4428V77.7496H87.6523L84.919 79.2906H71.9605H59.0019L56.2687 77.7496Z" fill="#F0F0FA"/>
<path d="M60.8654 85.7472L55.3178 102.965H88.6031L83.0556 85.7472H60.8654Z" fill="#D7D7E8"/>
<path d="M87.9266 43.0085C88.9906 39.8013 91.6027 37.0764 95.1076 35.3419L93.2306 30.8595L101.144 28.8642L103.022 33.3479C103.36 33.332 103.701 33.3236 104.044 33.3236C108.068 33.3236 111.758 34.4315 114.636 36.2758L119.551 33.5048L124.442 38.7284L119.531 41.4973C120.277 42.9646 120.687 44.5635 120.687 46.2366C120.687 47.91 120.277 49.5089 119.531 50.976L124.443 53.7451L119.552 58.9687L114.636 56.1977C111.759 58.042 108.069 59.1499 104.045 59.1499C103.702 59.1499 103.361 59.1415 103.023 59.1256L101.145 63.6093L93.2312 61.614L95.1082 57.1316C91.603 55.3969 88.9909 52.6722 87.9272 49.465H81.8554V43.0083L87.9266 43.0085ZM98.4972 46.2369C98.4972 48.6142 100.981 50.5413 104.045 50.5413C107.109 50.5413 109.592 48.6142 109.592 46.2369C109.592 43.8595 107.109 41.9324 104.045 41.9324C100.981 41.9322 98.4972 43.8595 98.4972 46.2369Z" fill="#9797A6"/>
<path d="M51.8209 29.5615C55.7871 30.3535 59.3234 31.9756 62.1055 34.1739L67.5213 31.7479L73.0688 39.2034L67.6586 41.6272C68.1828 43.0944 68.4638 44.6401 68.4638 46.2368C68.4638 47.8336 68.1828 49.3793 67.6586 50.8464L73.0691 53.2703L67.5215 60.7258L62.106 58.2998C59.3236 60.4983 55.7874 62.1202 51.8211 62.9124V67.7592H40.726V62.912C36.7604 62.1197 33.2238 60.498 30.4417 58.2998L25.0256 60.7255L19.4781 53.2701L24.8889 50.8462C24.3646 49.3791 24.0834 47.8333 24.0834 46.2368C24.0834 44.6401 24.3644 43.0944 24.8886 41.6272L19.4781 39.2034L25.0256 31.7479L30.4412 34.1739C33.2235 31.9754 36.7598 30.3535 40.726 29.5613V24.7145H51.8211L51.8209 29.5615ZM46.2733 37.628C40.1458 37.628 35.1782 41.4824 35.1782 46.2368C35.1782 50.9913 40.1458 54.8457 46.2733 54.8457C52.4009 54.8457 57.3684 50.9913 57.3684 46.2368C57.3684 41.4822 52.4011 37.628 46.2733 37.628Z" fill="#FD4848"/>
<path d="M134.648 6.1153H126.326C124.794 6.1153 123.553 7.07884 123.553 8.26751C123.553 9.45618 124.794 10.4197 126.326 10.4197H134.648C136.177 10.4197 137.422 11.3852 137.422 12.5719H6.49926C6.49926 11.3852 7.74358 10.4197 9.27304 10.4197H107.197C108.729 10.4197 109.971 9.45618 109.971 8.26751C109.971 7.07884 108.729 6.1153 107.197 6.1153H9.27304C4.68466 6.1153 0.951706 9.01174 0.951706 12.5719V81.4428C0.951706 85.003 4.68466 87.8994 9.27304 87.8994H57.3129L53.1522 100.813H46.7099C45.1779 100.813 43.9361 101.776 43.9361 102.965C43.9361 104.154 45.1779 105.117 46.7099 105.117H97.2115C98.7434 105.117 99.9853 104.154 99.9853 102.965C99.9853 101.776 98.7434 100.813 97.2115 100.813H90.7688L86.6082 87.8994H134.648C139.236 87.8994 142.969 85.003 142.969 81.4428V12.5719C142.969 9.01174 139.236 6.1153 134.648 6.1153ZM6.49926 16.8761H137.422V75.5971H87.6522C87.0664 75.5971 86.4958 75.7409 86.0218 76.0082L84.0174 77.1381H59.9031L57.8987 76.0082C57.425 75.7409 56.8541 75.5971 56.2683 75.5971H6.49926V16.8761ZM85.0501 100.813H58.8701L63.0308 87.8994H80.8895L85.0501 100.813ZM134.648 83.595H9.27304C7.74358 83.595 6.49926 82.6295 6.49926 81.4428V79.9018H55.3671L57.3714 81.0317C57.8452 81.299 58.416 81.4428 59.0019 81.4428H84.9189C85.5047 81.4428 86.0753 81.299 86.5494 81.0317L88.5537 79.9018H137.422V81.4428C137.422 82.6295 136.177 83.595 134.648 83.595Z" fill="black"/>
<path d="M115.166 10.4197H115.241C116.773 10.4197 118.015 9.45618 118.015 8.26751C118.015 7.07884 116.773 6.1153 115.241 6.1153H115.166C113.634 6.1153 112.393 7.07884 112.393 8.26751C112.393 9.45618 113.634 10.4197 115.166 10.4197Z" fill="black"/>
<path d="M38.7402 100.813H38.6653C37.1334 100.813 35.8916 101.776 35.8916 102.965C35.8916 104.154 37.1334 105.117 38.6653 105.117H38.7402C40.2722 105.117 41.514 104.154 41.514 102.965C41.514 101.776 40.2722 100.813 38.7402 100.813Z" fill="black"/>
<path d="M104.045 52.6933C108.633 52.6933 112.366 49.7968 112.366 46.2367C112.366 42.6765 108.633 39.78 104.045 39.78C99.4563 39.78 95.7234 42.6765 95.7234 46.2367C95.7234 49.7968 99.4563 52.6933 104.045 52.6933ZM104.045 44.0844C105.574 44.0844 106.818 45.0499 106.818 46.2367C106.818 47.4234 105.574 48.3889 104.045 48.3889C102.515 48.3889 101.271 47.4234 101.271 46.2367C101.271 45.0499 102.515 44.0844 104.045 44.0844Z" fill="black"/>
<path d="M81.8547 51.6172H85.9028C87.1235 54.1026 89.1675 56.284 91.845 57.9587L90.5927 60.949C90.1192 62.0795 90.9166 63.2936 92.3734 63.661L100.287 65.6563C100.567 65.7267 100.856 65.7615 101.144 65.7615C101.578 65.7615 102.01 65.6825 102.404 65.5269C103.059 65.2678 103.555 64.8174 103.783 64.2743L105.036 61.2823C108.459 61.1459 111.781 60.3052 114.642 58.8611L117.921 60.7098C118.517 61.0456 119.259 61.1842 119.986 61.0945C120.712 61.0051 121.363 60.6954 121.796 60.2338L126.687 55.0101C127.587 54.0485 127.313 52.7025 126.073 52.0039L122.798 50.1571C123.239 48.8854 123.462 47.5725 123.462 46.2364C123.462 44.9003 123.239 43.5875 122.798 42.316L126.073 40.4691C126.669 40.1336 127.068 39.6285 127.183 39.0646C127.298 38.5007 127.119 37.9246 126.687 37.4629L121.796 32.2393C120.895 31.2779 119.161 31.0646 117.921 31.7632L114.642 33.6122C111.781 32.1678 108.459 31.3272 105.036 31.1909L103.783 28.1989C103.555 27.6562 103.059 27.2055 102.404 26.9464C101.749 26.6874 100.988 26.641 100.288 26.817L92.3737 28.8123C90.9169 29.1797 90.1194 30.394 90.5929 31.5243L91.8453 34.5144C89.1683 36.189 87.1238 38.3707 85.903 40.8559H81.855C80.323 40.8559 79.0812 41.8194 79.0812 43.0081V49.4647C79.0809 50.6536 80.3227 51.6172 81.8547 51.6172ZM84.6285 45.1605H87.9265C89.1922 45.1605 90.2972 44.4959 90.6129 43.5449C91.4897 40.9017 93.6158 38.6329 96.5995 37.1562C97.6652 36.6289 98.1365 35.6092 97.7459 34.6767L96.726 32.2412L99.3639 31.5762L100.384 34.0131C100.775 34.9459 101.929 35.5578 103.191 35.4962C103.478 35.4827 103.765 35.4758 104.045 35.4758C107.261 35.4758 110.395 36.3492 112.87 37.9351C113.846 38.5603 115.243 38.5941 116.267 38.0169L118.938 36.511L120.568 38.2521L117.9 39.7561C116.877 40.3331 116.486 41.3746 116.951 42.2875C117.59 43.5436 117.914 44.8724 117.914 46.2369C117.914 47.6014 117.59 48.9301 116.951 50.1862C116.486 51.0994 116.877 52.1406 117.9 52.7176L120.568 54.2216L118.938 55.9627L116.267 54.4568C115.243 53.8798 113.845 53.9134 112.87 54.5386C110.395 56.1246 107.261 56.9979 104.045 56.9979C103.767 56.9979 103.479 56.991 103.19 56.9775C101.925 56.9172 100.775 57.5282 100.384 58.4608L99.3639 60.8975L96.726 60.2325L97.7459 57.797C98.1365 56.8643 97.665 55.8448 96.5995 55.3175C93.6158 53.8408 91.4897 51.5722 90.6129 48.9288C90.2975 47.9778 89.1922 47.3132 87.9265 47.3132H84.6285V45.1605Z" fill="black"/>
<path d="M66.1345 62.5894C67.4617 63.184 69.1576 62.8313 69.9235 61.8016L75.471 54.3462C76.2371 53.3168 75.7825 52.0005 74.4558 51.4062L70.82 49.7774C71.0973 48.6133 71.2374 47.4281 71.2374 46.2368C71.2374 45.0456 71.0973 43.8604 70.82 42.6962L74.4558 41.0674C75.7825 40.4732 76.2371 39.1569 75.471 38.1275L69.9235 30.672C69.5557 30.1777 68.9499 29.8169 68.2392 29.6693C67.5283 29.5212 66.7714 29.5989 66.1345 29.8843L62.4953 31.5146C60.1601 29.9637 57.4814 28.7619 54.5948 27.9701V24.7149C54.5948 23.5262 53.353 22.5627 51.821 22.5627H40.7259C39.1939 22.5627 37.9521 23.5262 37.9521 24.7149V27.9701C35.0657 28.7619 32.3871 29.9639 30.0516 31.5146L26.4124 29.8843C25.7755 29.5989 25.0186 29.5217 24.3077 29.6693C23.597 29.8172 22.9912 30.1777 22.6234 30.672L17.0759 38.1275C16.3098 39.1569 16.7644 40.4732 18.0911 41.0674L21.7267 42.6962C21.4493 43.8601 21.3092 45.0454 21.3092 46.2368C21.3092 47.4279 21.4493 48.6131 21.7269 49.7774L18.0908 51.4065C16.7641 52.0007 16.3095 53.317 17.0756 54.3464L22.6231 61.8019C23.389 62.8313 25.0854 63.1838 26.4121 62.5896L30.0516 60.9593C32.3863 62.5097 35.0652 63.7113 37.9516 64.5033V67.759C37.9516 68.9476 39.1934 69.9112 40.7253 69.9112H51.8204C53.3524 69.9112 54.5942 68.9476 54.5942 67.759V64.5038C57.4806 63.7117 60.1592 62.5099 62.4948 60.9593L66.1345 62.5894ZM60.1265 56.7915C57.6451 58.752 54.5337 60.1479 51.1292 60.8278C49.9038 61.0725 49.0469 61.9301 49.0469 62.912V65.6065H43.4994V62.9115C43.4994 61.9295 42.6429 61.0723 41.4174 60.8273C38.012 60.147 34.901 58.7513 32.4204 56.7915C31.5342 56.0912 30.1498 55.9448 29.0544 56.4355L26.0407 57.7856L23.2669 54.058L26.2757 52.71C27.3707 52.2196 27.8994 51.2166 27.5619 50.2712C27.0942 48.9622 26.857 47.6048 26.857 46.2366C26.857 44.8674 27.0939 43.51 27.5613 42.2021C27.8991 41.2566 27.3705 40.2537 26.2754 39.7632L23.2672 38.4155L26.041 34.6876L29.0544 36.0375C30.1501 36.5282 31.5339 36.3818 32.4204 35.6817C34.9018 33.7211 38.0132 32.3253 41.4177 31.6455C42.6434 31.4005 43.5 30.5431 43.5 29.561V26.8663H49.0475V29.561C49.0475 30.5431 49.904 31.4005 51.1298 31.6455C54.5346 32.3253 57.6456 33.7211 60.1268 35.6815C61.013 36.3818 62.3974 36.5282 63.4928 36.0375L66.5062 34.6876L69.28 38.4155L66.2718 39.7632C65.177 40.2537 64.648 41.2566 64.9856 42.2019C65.453 43.5104 65.6901 44.8678 65.6901 46.2366C65.6901 47.6054 65.4533 48.963 64.9856 50.2714C64.6478 51.2168 65.1767 52.2198 66.2718 52.7103L69.28 54.058L66.5062 57.7856L63.4928 56.4357C62.3968 55.945 61.0127 56.0914 60.1265 56.7915Z" fill="black"/>
<path d="M46.2736 35.4756C38.6263 35.4756 32.4047 40.303 32.4047 46.2367C32.4047 52.1703 38.6263 56.9977 46.2736 56.9977C53.9209 56.9977 60.1425 52.1703 60.1425 46.2367C60.1425 40.303 53.9209 35.4756 46.2736 35.4756ZM46.2736 52.6933C41.6852 52.6933 37.9522 49.7968 37.9522 46.2367C37.9522 42.6765 41.6852 39.78 46.2736 39.78C50.862 39.78 54.5949 42.6765 54.5949 46.2367C54.5949 49.7968 50.862 52.6933 46.2736 52.6933Z" fill="black"/>
</g>
<defs>
<clipPath id="clip0_21:179">
<rect width="142.017" height="110.193" fill="white" transform="translate(0.951706 0.519531)"/>
</clipPath>
</defs>
</svg>
