<svg id="Layer_1" enable-background="new 0 0 510 510" height="512" viewBox="0 0 510 510" width="512" xmlns="http://www.w3.org/2000/svg"><g><g><g><path d="m235.347 19.653c-90.568 0-146.358 51.086-146.512 51.172 0 0-2.32 2.895-2.753 4.82-3.524 15.642-6.816 36.606-6.816 51.904 0 129.979 109.61 235.321 239.589 235.321 50.052 0 105.738-23.989 143.007-52.831.834-.645 3.479-4.981 3.479-4.981.164-1.003 5.353-21.667 5.353-50.058 0-129.979-105.368-235.347-235.347-235.347z" fill="#9be69d"/></g><path d="m318.834 356.226c-129.979 0-235.347-105.369-235.347-235.347 0-17.18 1.853-33.92 5.348-50.054-27.492 21.902-49.975 49.83-65.445 81.785l1.428 38.652-20.498 18.633c-2.835 14.598-4.32 29.678-4.32 45.105 0 15.564 1.511 30.775 4.394 45.494l15.563 28.469 3.431 28.442c5.44 11.24 11.748 21.981 18.837 32.137l25.046 8.673 5.011 26.484c42.299 40.655 99.764 65.648 163.066 65.648 32.45 0 63.485-6.604 91.758-18.59l9.461-17.803 27.076-1.645c50.85-33.108 88.304-85.421 101.699-147.25-40.203 32.021-91.116 51.167-146.508 51.167z" fill="#05e39c"/></g><g><path d="m104.631 230.876c-7.86 0-14.864-4.804-17.864-12.07-.033-.079-.066-.159-.099-.238-3.026-7.274-1.491-15.641 4.08-21.212l5.703-5.703-34.117-34.117-5.703 5.703c-5.571 5.571-13.938 7.106-21.212 4.08-.079-.033-.159-.066-.238-.099-6.245-2.578-10.671-8.115-11.792-14.61-4.97 10.267-9.217 20.95-12.672 31.982l29.979 24.992 16.203 39.81-5.185 36.695-40.915 39.598h.001c3.44 10.939 7.657 21.533 12.587 31.718 1.116-6.502 5.545-12.045 11.794-14.625.08-.033.159-.066.238-.099 7.273-3.027 15.641-1.491 21.212 4.08l5.703 5.703 34.117-34.117-5.703-5.703c-5.57-5.57-7.106-13.938-4.08-21.212.033-.08.066-.159.099-.238 3-7.265 10.004-12.07 17.864-12.07h8.067v-48.249h-8.067z" fill="#0182fc"/><path d="m70.355 255c0-35.42-25.803-64.813-59.637-70.408-2.584 8.248-4.726 16.692-6.398 25.303 22.57 2.64 40.083 21.827 40.083 45.105 0 22.168-15.888 40.614-36.895 44.603l.003.004c-.001 0-.002-.001-.002-.001-.668.115-1.522.294-3.192.494 1.672 8.613 3.813 17.058 6.396 25.308 10.751-1.778 20.691-5.96 29.251-11.973 0 0 0 0-.001 0h.001c18.379-12.91 30.391-34.269 30.391-58.435z" fill="#0593fc"/></g><g><path d="m325.148 439.853v-43.547c77.917 0 141.306-63.39 141.306-141.306s-63.389-141.306-141.306-141.306-141.307 63.389-141.307 141.306h-43.546c0-101.928 82.924-184.853 184.853-184.853 101.928 0 184.852 82.925 184.852 184.853s-82.924 184.853-184.852 184.853z" fill="#fd3581"/></g><path d="m162.068 233.226c-12.025 0-21.773 9.749-21.773 21.774 0 62.843-41.236 116.235-98.07 134.542 8.857 12.689 18.932 24.465 30.057 35.157 65.574-28.43 111.56-93.795 111.56-169.699-.001-12.025-9.749-21.774-21.774-21.774z" fill="#e41e7f"/><g><g><path d="m430.791 230.876c-7.86 0-14.864-4.804-17.864-12.07-.033-.079-.066-.159-.099-.238-3.026-7.274-1.491-15.641 4.08-21.212l5.703-5.703-34.117-34.117-5.703 5.703c-5.571 5.571-13.938 7.106-21.212 4.08-.079-.033-.159-.066-.238-.099-7.265-3-12.07-10.004-12.07-17.864v-8.067h-48.249v8.067c0 7.86-4.805 14.864-12.07 17.864-.08.033-.159.066-.238.099-7.273 3.027-15.641 1.491-21.212-4.08l-5.703-5.703-16.57 58.726 15.398 103.662 124.529 9.403 37.453-10.98-5.703-5.703c-5.571-5.57-7.106-13.938-4.08-21.212.033-.08.066-.159.099-.238 3-7.265 10.004-12.07 17.864-12.07h8.067v-48.249h-8.065zm-68.022 63.269c-9.878 9.878-24.55 15.954-38.517 15.954-14.759 0-27.86-6.171-38.517-15.954-10.696-9.819-15.323-24.43-15.954-38.517-.608-13.569 6.507-29.07 15.954-38.517 9.878-9.878 24.551-15.954 38.517-15.954 14.759 0 27.86 6.171 38.517 15.954 10.696 9.819 15.323 24.43 15.954 38.517.608 13.569-6.506 29.069-15.954 38.517z" fill="#0182fc"/></g><g><path d="m325.147 183.632c-24.106 0-45.418 11.952-58.337 30.253l-2.667 22.419 16.419 10.073c4.03-20.957 22.452-36.793 44.584-36.793 25.082 0 45.416 20.333 45.416 45.416 0 22.168-15.888 40.614-36.895 44.603l11.177 15.553 21.278-1.721c18.379-12.909 30.392-34.268 30.392-58.435.001-39.415-31.951-71.368-71.367-71.368z" fill="#0593fc"/></g><g><path d="m422.434 318.17c-5.306.588-10.696.901-16.159.901-21.756 0-42.385-4.803-60.905-13.388-6.741 2.841-14.019 4.417-21.118 4.417-14.759 0-27.86-6.171-38.517-15.954-10.696-9.819-15.323-24.43-15.954-38.517-.314-7.003 1.441-14.516 4.501-21.451-8.354-18.313-13.012-38.668-13.012-60.111 0-5.463.313-10.853.901-16.159l-.37-.37-34.117 34.117 5.703 5.703c5.57 5.571 7.106 13.938 4.08 21.212-.033.079-.066.159-.099.238-3 7.265-10.004 12.07-17.864 12.07h-8.066v48.249h8.066c7.86 0 14.864 4.805 17.864 12.07.033.079.066.159.099.238 3.026 7.273 1.491 15.641-4.08 21.212l-5.703 5.703 34.117 34.117 5.703-5.703c5.57-5.571 13.938-7.106 21.212-4.08.079.033.159.066.238.099 7.265 3 12.07 10.003 12.07 17.864v8.067h48.249v-8.067c0-7.86 4.804-14.864 12.07-17.864.079-.033.159-.066.238-.099 7.273-3.027 15.641-1.491 21.212 4.08l5.703 5.703 34.117-34.117z" fill="#0182fc"/></g><g><path d="m333.669 299.606c-.001 0-.003.001-.005.001-31.532 5.985-59.168-21.686-53.105-53.228v-.002c-5.835-10.123-10.48-21.018-13.751-32.492-8.205 11.623-13.028 25.805-13.028 41.115 0 39.415 31.952 71.368 71.368 71.368 15.249 0 29.379-4.786 40.976-12.933-11.464-3.298-22.346-7.97-32.455-13.829z" fill="#0593fc"/></g></g><path d="m332.627 358.881-45.202 45.202c-7.73 7.73-7.73 20.263 0 27.993l39.68 39.68c12.785-5.42 25.006-11.94 36.537-19.449l-34.228-34.228 31.206-31.206z" fill="#e41e7f"/></g></svg>