<svg width="149" height="117" viewBox="0 0 149 117" fill="none" xmlns="http://www.w3.org/2000/svg">
<g clip-path="url(#clip0_21:88)">
<path d="M68.5603 4.57953C42.1764 4.57953 25.9239 16.2341 25.879 16.2537C25.879 16.2537 25.2032 16.9141 25.0771 17.3533C24.0505 20.9218 23.0914 25.7044 23.0914 29.1945C23.0914 58.8473 55.0226 82.8796 92.8876 82.8796C107.469 82.8796 123.691 77.4069 134.548 70.827C134.791 70.6798 135.561 69.6906 135.561 69.6906C135.609 69.4618 137.121 64.7476 137.121 58.2706C137.121 28.6177 106.425 4.57953 68.5603 4.57953V4.57953Z" fill="#9BE69D"/>
<path d="M92.8815 81.3639C55.0165 81.3639 24.3211 57.3255 24.3211 27.6728C24.3211 23.7535 24.8609 19.9345 25.8791 16.2537C17.8702 21.2504 11.3205 27.6217 6.81387 34.9118L7.22987 43.7297L1.25847 47.9806C0.432589 51.3109 -1.52588e-05 54.7512 -1.52588e-05 58.2706C-1.52588e-05 61.8213 0.440163 65.2915 1.28003 68.6495L5.81378 75.1443L6.81329 81.6329C8.39805 84.1971 10.2357 86.6475 12.3008 88.9645L19.5971 90.9431L21.0569 96.9851C33.3793 106.26 50.1198 111.962 68.5607 111.962C78.0139 111.962 87.0549 110.455 95.2912 107.721L98.0474 103.659L105.935 103.284C120.748 95.7308 131.659 83.7963 135.562 69.6909C123.85 76.996 109.018 81.3639 92.8815 81.3639V81.3639Z" fill="#05E39C"/>
<path d="M30.4807 52.767C28.1909 52.767 26.1506 51.671 25.2766 50.0134C25.267 49.9954 25.2574 49.9771 25.2478 49.9591C24.3662 48.2997 24.8134 46.3908 26.4363 45.1199L28.0977 43.8188L18.1589 36.0355L16.4975 37.3366C14.8746 38.6075 12.4371 38.9577 10.3181 38.2674C10.2951 38.2599 10.2718 38.2523 10.2488 38.2448C8.42951 37.6567 7.14015 36.3935 6.81358 34.9117C5.36574 37.254 4.12852 39.6912 3.12202 42.208L11.8554 47.9095L16.5756 56.9916L15.0651 65.3631L3.14591 74.3968H3.1462C4.14833 76.8924 5.37681 79.3092 6.813 81.6328C7.13811 80.1494 8.42835 78.8849 10.2488 78.2963C10.2721 78.2888 10.2951 78.2812 10.3181 78.2737C12.4369 77.5831 14.8746 77.9336 16.4975 79.2045L18.1589 80.5056L28.0977 72.7223L26.4363 71.4212C24.8137 70.1505 24.3662 68.2414 25.2478 66.582C25.2574 66.5637 25.267 66.5457 25.2766 66.5277C26.1506 64.8703 28.1909 63.7741 30.4807 63.7741H32.8307V52.7668H30.4807V52.767Z" fill="#0182FC"/>
<path d="M20.4955 58.2706C20.4955 50.19 12.9787 43.4844 3.1223 42.208C2.36954 44.0897 1.74554 46.0161 1.25846 47.9805C7.83346 48.5828 12.9353 52.9601 12.9353 58.2706C12.9353 63.3279 8.30685 67.5361 2.18717 68.4461L2.18805 68.4471C2.18776 68.4471 2.18746 68.4468 2.18746 68.4468C1.99287 68.4731 1.74408 68.5139 1.25758 68.5595C1.74466 70.5245 2.36837 72.4511 3.12084 74.3332C6.25278 73.9276 9.14846 72.9735 11.6421 71.6017C11.6421 71.6017 11.6421 71.6017 11.6418 71.6017H11.6421C16.9962 68.6565 20.4955 63.7837 20.4955 58.2706Z" fill="#0593FC"/>
<path d="M94.7208 100.442V90.5075C117.419 90.5075 135.886 76.046 135.886 58.2706C135.886 40.4952 117.419 26.0336 94.7208 26.0336C72.0224 26.0336 53.5558 40.4949 53.5558 58.2706H40.8702C40.8702 35.0172 65.0273 16.099 94.7208 16.099C124.414 16.099 148.571 35.0172 148.571 58.2706C148.571 81.524 124.414 100.442 94.7208 100.442V100.442Z" fill="#FD3581"/>
<path d="M47.213 53.3032C43.7099 53.3032 40.8702 55.5273 40.8702 58.2706C40.8702 72.6073 28.8575 84.788 12.3008 88.9644C14.881 91.8593 17.816 94.5458 21.0569 96.985C40.1597 90.4991 53.5561 75.587 53.5561 58.2706C53.5559 55.5273 50.7161 53.3032 47.213 53.3032V53.3032Z" fill="#E41E7F"/>
<path d="M125.496 52.767C123.207 52.767 121.166 51.6711 120.292 50.0134C120.283 49.9954 120.273 49.9772 120.263 49.9591C119.382 48.2997 119.829 46.3909 121.452 45.1199L123.113 43.8189L113.175 36.0356L111.513 37.3366C109.89 38.6076 107.453 38.9578 105.334 38.2674C105.311 38.2599 105.287 38.2524 105.264 38.2448C103.148 37.5604 101.748 35.9626 101.748 34.1694V32.329H87.6925V34.1694C87.6925 35.9626 86.2927 37.5604 84.1763 38.2448C84.153 38.2524 84.13 38.2599 84.107 38.2674C81.9883 38.958 79.5505 38.6076 77.9276 37.3366L76.2662 36.0356L71.4391 49.4331L75.9248 73.0821L112.202 75.2272L123.113 72.7223L121.451 71.4213C119.828 70.1505 119.381 68.2415 120.263 66.582C120.272 66.5638 120.282 66.5458 120.292 66.5277C121.166 64.8703 123.206 63.7741 125.496 63.7741H127.846V52.7668H125.496V52.767ZM105.68 67.201C102.803 69.4545 98.5286 70.8407 94.4598 70.8407C90.1603 70.8407 86.3437 69.4328 83.2392 67.201C80.1232 64.9609 78.7753 61.6276 78.5915 58.4139C78.4144 55.3183 80.4871 51.782 83.2392 49.6268C86.1168 47.3732 90.3913 45.9871 94.4598 45.9871C98.7593 45.9871 102.576 47.3949 105.68 49.6268C108.796 51.8668 110.144 55.2001 110.328 58.4139C110.505 61.5094 108.433 65.0455 105.68 67.201Z" fill="#0182FC"/>
<path d="M94.7205 41.989C87.6981 41.989 81.4895 44.7157 77.726 48.8908L76.9491 54.0054L81.7322 56.3034C82.9062 51.5224 88.2728 47.9096 94.7203 47.9096C102.027 47.9096 107.951 52.5483 107.951 58.2706C107.951 63.3279 103.322 67.5361 97.2026 68.4462L100.459 71.9944L106.657 71.6017C112.011 68.6567 115.511 63.784 115.511 58.2706C115.511 49.2786 106.203 41.989 94.7205 41.989V41.989Z" fill="#0593FC"/>
<path d="M123.062 72.6819C121.516 72.8161 119.946 72.8875 118.354 72.8875C112.017 72.8875 106.007 71.7917 100.612 69.8332C98.6481 70.4813 96.5279 70.8409 94.4598 70.8409C90.1603 70.8409 86.3437 69.433 83.2392 67.2012C80.1233 64.9611 78.7754 61.6278 78.5915 58.4141C78.5001 56.8164 79.0113 55.1025 79.9027 53.5203C77.4691 49.3425 76.1121 44.6988 76.1121 39.8069C76.1121 38.5606 76.2033 37.3309 76.3746 36.1204L76.2668 36.036L66.328 43.8193L67.9894 45.1204C69.612 46.3913 70.0595 48.3001 69.1779 49.9596C69.1683 49.9776 69.1587 49.9959 69.1491 50.0139C68.2752 51.6713 66.2348 52.7675 63.945 52.7675H61.5953V63.7748H63.945C66.2348 63.7748 68.2752 64.871 69.1491 66.5284C69.1587 66.5464 69.1683 66.5647 69.1779 66.5827C70.0595 68.2419 69.6123 70.151 67.9894 71.4219L66.328 72.723L76.2668 80.5063L77.9282 79.2052C79.5508 77.9343 81.9886 77.5841 84.1076 78.2744C84.1306 78.282 84.1539 78.2895 84.1769 78.297C86.2933 78.9814 87.6931 80.5791 87.6931 82.3724V84.2128H101.749V82.3724C101.749 80.5793 103.148 78.9814 105.265 78.297C105.288 78.2895 105.311 78.282 105.334 78.2744C107.453 77.5839 109.891 77.9343 111.514 79.2052L113.175 80.5063L123.114 72.723L123.062 72.6819Z" fill="#0182FC"/>
<path d="M97.2031 68.4468C97.2028 68.4468 97.2023 68.4471 97.2017 68.4471C88.0159 69.8125 79.9651 63.4997 81.7313 56.3039V56.3034C80.0315 53.994 78.6784 51.5084 77.7255 48.8908C75.3352 51.5424 73.9302 54.7779 73.9302 58.2706C73.9302 67.2626 83.2383 74.5522 94.7208 74.5522C99.1631 74.5522 103.279 73.4604 106.658 71.6017C103.318 70.8493 100.148 69.7835 97.2031 68.4468V68.4468Z" fill="#0593FC"/>
<path d="M96.8996 81.9695L83.7315 92.2817C81.4796 94.0452 81.4796 96.9045 83.7315 98.6679L95.2909 107.72C99.0154 106.484 102.576 104.996 105.935 103.283L95.9636 95.4747L105.054 88.3555L96.8996 81.9695Z" fill="#E41E7F"/>
</g>
<defs>
<clipPath id="clip0_21:88">
<rect width="148.571" height="116.349" fill="white" transform="translate(0 0.0960083)"/>
</clipPath>
</defs>
</svg>
