<svg width="100" height="80" viewBox="0 0 100 80" fill="none" xmlns="http://www.w3.org/2000/svg">
<g clip-path="url(#clip0_16:111)">
<path d="M32.5 55C32.1266 55 31.7531 55.0547 31.3969 55.1703C29.3719 55.8281 27.2422 56.25 25 56.25C22.7578 56.25 20.6281 55.8281 18.6016 55.1703C18.2453 55.0547 17.8734 55 17.5 55C7.80313 55 -0.0515542 62.8875 8.27794e-06 72.5969C0.0218833 76.7 3.39532 80 7.50001 80H42.5C46.6047 80 49.9781 76.7 50 72.5969C50.0516 62.8875 42.1969 55 32.5 55ZM25 50C33.2844 50 40 43.2844 40 35C40 26.7156 33.2844 20 25 20C16.7156 20 10 26.7156 10 35C10 43.2844 16.7156 50 25 50ZM92.5 0H32.5C28.3641 0 25 3.47656 25 7.74844V15C28.6594 15 32.0469 16.0594 35 17.7812V10H90V55H80V45H60V55H48.0875C51.0719 57.6078 53.2625 61.0516 54.2891 65H92.5C96.6359 65 100 61.5234 100 57.2516V7.74844C100 3.47656 96.6359 0 92.5 0Z" fill="white"/>
</g>
<defs>
<clipPath id="clip0_16:111">
<rect width="100" height="80" fill="white"/>
</clipPath>
</defs>
</svg>
