<svg width="282" height="48" viewBox="0 0 282 48" fill="none" xmlns="http://www.w3.org/2000/svg">
<path d="M0 17.3637H6.57263V34.1819H10.8043V17.3637H17.8271V13.4546H0V17.3637Z" fill="#04456A"/>
<path d="M21.0684 34.1819H35.9244V30.3637H25.3001V25.1819H32.8631V21.3637H25.3001V17.3637H35.9244V13.4546H21.0684V34.1819Z" fill="#04456A"/>
<path d="M51.0504 21.2727H43.3973V13.5454H39.1656V34.2727H43.3973V25.3636H51.0504V34.2727H55.2821V13.5454H51.0504V21.2727Z" fill="#04456A"/>
<path d="M71.8488 23.0909C73.4694 22 73.7395 20.1818 73.7395 18.5455C73.7395 14.6364 71.3085 13 65.6363 13C63.2053 13 60.6843 13.4545 59.3338 13.7273L58.6135 13.9091L59.6039 17.8182L60.3242 17.5455C61.4046 17.1818 63.5655 16.9091 65.2761 16.9091C69.3278 17 69.3278 17.8182 69.3278 19C69.3278 20.4545 69.1477 21.3636 66.1765 21.3636H62.5751V25.1818H66.2665C69.3278 25.1818 69.868 26 69.868 27.9091C69.868 29.5455 69.5979 30.6364 65.3662 30.6364C63.7455 30.6364 61.4946 30.4545 60.2341 30L59.4238 29.7273L58.5234 33.6364L59.2437 33.8182C60.8644 34.1818 63.6555 34.5455 65.7263 34.5455C69.958 34.5455 74.2797 33.8182 74.2797 28.1818C74.2797 26.4545 73.9196 24.1818 71.8488 23.0909Z" fill="#04456A"/>
<path d="M87.0648 13C80.132 13 77.431 16 77.431 23.7273C77.431 31.5455 80.132 34.6364 87.0648 34.6364C93.9976 34.6364 96.6987 31.5455 96.6987 23.7273C96.6987 16 93.9976 13 87.0648 13ZM87.0648 30.6364C83.1032 30.6364 81.9328 29.7273 81.9328 23.8182C81.9328 17.5455 83.1933 17 87.0648 17C90.9364 17 92.1969 17.5455 92.1969 23.8182C92.1969 29.7273 91.0264 30.6364 87.0648 30.6364Z" fill="#04456A"/>
<path d="M109.844 13.4546H99.8499V34.1819H104.082V27.4546H109.844C113.535 27.4546 115.876 24.8182 115.876 20.6364C115.876 14.7273 112.635 13.4546 109.844 13.4546ZM104.082 17.3637H109.394C110.744 17.3637 111.375 18.4546 111.375 20.6364C111.375 22.6364 110.654 23.6364 109.304 23.6364H104.172V17.3637H104.082Z" fill="#04456A"/>
<path d="M146.489 11H122.719L119.118 17.2727H126.321H142.887L134.604 31.7273L138.205 38L150 17.2727L146.489 11Z" fill="#04456A"/>
<path d="M131.993 27.1818L126.681 30.3636L131.002 38H138.205L134.604 31.7272L131.993 27.1818Z" fill="#EE7E22"/>
<path d="M128.932 21.8182L122.719 11L119.118 17.2727L123.529 24.9091L128.932 21.8182Z" fill="#EE7E22"/>
<rect x="155" width="127" height="48" rx="24" fill="#EE7E22" fill-opacity="0.39"/>
<path d="M173.036 35.168C171.972 35.168 170.833 35.112 169.62 35C168.425 34.8693 167.399 34.692 166.54 34.468V31.192C167.361 31.2667 168.351 31.332 169.508 31.388C170.684 31.4253 171.795 31.444 172.84 31.444C173.904 31.444 174.744 31.304 175.36 31.024C175.976 30.7253 176.284 30.1653 176.284 29.344V28.588C176.284 27.972 176.097 27.5053 175.724 27.188C175.351 26.852 174.837 26.684 174.184 26.684H172.42C170.441 26.684 168.92 26.2547 167.856 25.396C166.811 24.5187 166.288 23.0347 166.288 20.944V19.936C166.288 17.92 166.857 16.4453 167.996 15.512C169.153 14.5787 170.815 14.112 172.98 14.112C174.119 14.112 175.248 14.1867 176.368 14.336C177.507 14.4853 178.468 14.644 179.252 14.812V18.088C178.393 18.032 177.432 17.976 176.368 17.92C175.323 17.864 174.352 17.836 173.456 17.836C172.485 17.836 171.701 17.9853 171.104 18.284C170.525 18.5827 170.236 19.1987 170.236 20.132V20.692C170.236 21.42 170.441 21.9427 170.852 22.26C171.263 22.5773 171.869 22.736 172.672 22.736H174.716C176.564 22.736 177.945 23.24 178.86 24.248C179.775 25.256 180.232 26.5253 180.232 28.056V29.232C180.232 30.856 179.924 32.0973 179.308 32.956C178.711 33.8147 177.871 34.4027 176.788 34.72C175.724 35.0187 174.473 35.168 173.036 35.168ZM190.252 35.168C189.058 35.168 187.994 35.028 187.06 34.748C186.127 34.468 185.343 33.9547 184.708 33.208C184.074 32.4613 183.588 31.3973 183.252 30.016C182.916 28.616 182.748 26.8053 182.748 24.584C182.748 22.4373 182.916 20.6827 183.252 19.32C183.607 17.9573 184.111 16.8933 184.764 16.128C185.418 15.3627 186.211 14.8307 187.144 14.532C188.078 14.2333 189.132 14.084 190.308 14.084C191.69 14.084 192.94 14.196 194.06 14.42C195.199 14.6253 196.104 14.84 196.776 15.064V18.284C196.272 18.172 195.507 18.0693 194.48 17.976C193.472 17.864 192.371 17.808 191.176 17.808C190.392 17.808 189.72 17.9013 189.16 18.088C188.619 18.256 188.18 18.5827 187.844 19.068C187.527 19.5347 187.284 20.216 187.116 21.112C186.967 22.008 186.892 23.1747 186.892 24.612C186.892 26.4787 187.014 27.9067 187.256 28.896C187.499 29.8667 187.928 30.5387 188.544 30.912C189.16 31.2667 190.038 31.444 191.176 31.444C192.576 31.444 193.724 31.416 194.62 31.36C195.516 31.304 196.235 31.2387 196.776 31.164V34.356C196.011 34.6173 195.087 34.8227 194.004 34.972C192.94 35.1027 191.69 35.168 190.252 35.168ZM199.687 35V14.28H203.831V22.904H211.643V14.28H215.815V35H211.643V26.628H203.831V35H199.687ZM227.382 35.168C225.963 35.168 224.722 35.0373 223.658 34.776C222.594 34.496 221.707 33.992 220.998 33.264C220.289 32.5173 219.747 31.4533 219.374 30.072C219.019 28.6907 218.842 26.8893 218.842 24.668C218.842 22.4467 219.019 20.6453 219.374 19.264C219.747 17.864 220.289 16.7907 220.998 16.044C221.726 15.2973 222.613 14.784 223.658 14.504C224.722 14.224 225.963 14.084 227.382 14.084C228.801 14.084 230.042 14.224 231.106 14.504C232.17 14.784 233.057 15.2973 233.766 16.044C234.475 16.7907 235.007 17.864 235.362 19.264C235.717 20.6453 235.894 22.4467 235.894 24.668C235.894 26.8893 235.717 28.6907 235.362 30.072C235.007 31.4533 234.475 32.5173 233.766 33.264C233.057 33.992 232.161 34.496 231.078 34.776C230.014 35.0373 228.782 35.168 227.382 35.168ZM227.382 31.444C228.203 31.444 228.894 31.36 229.454 31.192C230.033 31.0053 230.481 30.6693 230.798 30.184C231.134 29.6987 231.377 29.0173 231.526 28.14C231.675 27.244 231.75 26.0867 231.75 24.668C231.75 23.1933 231.675 22.008 231.526 21.112C231.377 20.1973 231.134 19.5067 230.798 19.04C230.462 18.5547 230.014 18.228 229.454 18.06C228.894 17.892 228.203 17.808 227.382 17.808C226.561 17.808 225.87 17.892 225.31 18.06C224.769 18.228 224.321 18.5547 223.966 19.04C223.63 19.5067 223.378 20.1973 223.21 21.112C223.061 22.008 222.986 23.1933 222.986 24.668C222.986 26.0867 223.051 27.244 223.182 28.14C223.331 29.0173 223.574 29.6987 223.91 30.184C224.246 30.6693 224.694 31.0053 225.254 31.192C225.814 31.36 226.523 31.444 227.382 31.444ZM246.96 35.168C245.541 35.168 244.3 35.0373 243.236 34.776C242.172 34.496 241.285 33.992 240.576 33.264C239.867 32.5173 239.325 31.4533 238.952 30.072C238.597 28.6907 238.42 26.8893 238.42 24.668C238.42 22.4467 238.597 20.6453 238.952 19.264C239.325 17.864 239.867 16.7907 240.576 16.044C241.304 15.2973 242.191 14.784 243.236 14.504C244.3 14.224 245.541 14.084 246.96 14.084C248.379 14.084 249.62 14.224 250.684 14.504C251.748 14.784 252.635 15.2973 253.344 16.044C254.053 16.7907 254.585 17.864 254.94 19.264C255.295 20.6453 255.472 22.4467 255.472 24.668C255.472 26.8893 255.295 28.6907 254.94 30.072C254.585 31.4533 254.053 32.5173 253.344 33.264C252.635 33.992 251.739 34.496 250.656 34.776C249.592 35.0373 248.36 35.168 246.96 35.168ZM246.96 31.444C247.781 31.444 248.472 31.36 249.032 31.192C249.611 31.0053 250.059 30.6693 250.376 30.184C250.712 29.6987 250.955 29.0173 251.104 28.14C251.253 27.244 251.328 26.0867 251.328 24.668C251.328 23.1933 251.253 22.008 251.104 21.112C250.955 20.1973 250.712 19.5067 250.376 19.04C250.04 18.5547 249.592 18.228 249.032 18.06C248.472 17.892 247.781 17.808 246.96 17.808C246.139 17.808 245.448 17.892 244.888 18.06C244.347 18.228 243.899 18.5547 243.544 19.04C243.208 19.5067 242.956 20.1973 242.788 21.112C242.639 22.008 242.564 23.1933 242.564 24.668C242.564 26.0867 242.629 27.244 242.76 28.14C242.909 29.0173 243.152 29.6987 243.488 30.184C243.824 30.6693 244.272 31.0053 244.832 31.192C245.392 31.36 246.101 31.444 246.96 31.444ZM263.43 35C261.806 35 260.584 34.6267 259.762 33.88C258.941 33.1333 258.53 31.8733 258.53 30.1V14.28H262.674V29.428C262.674 30.1187 262.842 30.5947 263.178 30.856C263.533 31.1173 263.981 31.248 264.522 31.248H271.074V35H263.43Z" fill="#04456A"/>
</svg>
