<svg width="150" height="108" viewBox="0 0 150 108" fill="none" xmlns="http://www.w3.org/2000/svg">
<path d="M69.503 0.579529C43.1191 0.579529 26.8666 12.2341 26.8217 12.2537C26.8217 12.2537 26.1459 12.9141 26.0197 13.3533C24.9931 16.9218 24.0341 21.7044 24.0341 25.1945C24.0341 54.8473 55.9653 78.8796 93.8302 78.8796C108.411 78.8796 124.633 73.4069 135.49 66.827C135.733 66.6798 136.504 65.6906 136.504 65.6906C136.552 65.4618 138.063 60.7476 138.063 54.2706C138.063 24.6177 107.368 0.579529 69.503 0.579529V0.579529Z" fill="#9BE69D"/>
<path d="M93.8241 77.3639C55.9592 77.3639 25.2638 53.3255 25.2638 23.6728C25.2638 19.7535 25.8036 15.9345 26.8217 12.2537C18.8129 17.2504 12.2632 23.6217 7.75654 30.9118L8.17254 39.7297L2.20114 43.9806C1.37526 47.3109 0.942657 50.7512 0.942657 54.2706C0.942657 57.8213 1.38284 61.2915 2.2227 64.6495L6.75645 71.1443L7.75596 77.6329C9.34072 80.1971 11.1783 82.6475 13.2435 84.9645L20.5398 86.9431L21.9996 92.9851C34.3219 102.26 51.0624 107.962 69.5033 107.962C78.9565 107.962 87.9975 106.455 96.2339 103.721L98.99 99.6592L106.878 99.2839C121.691 91.7308 132.602 79.7963 136.504 65.6909C124.793 72.996 109.961 77.3639 93.8241 77.3639V77.3639Z" fill="#05E39C"/>
<path d="M31.4234 48.767C29.1336 48.767 27.0932 47.671 26.2193 46.0134C26.2097 45.9954 26.2001 45.9771 26.1904 45.9591C25.3089 44.2997 25.7561 42.3908 27.379 41.1199L29.0404 39.8188L19.1016 32.0355L17.4402 33.3366C15.8173 34.6075 13.3798 34.9577 11.2608 34.2674C11.2378 34.2599 11.2145 34.2523 11.1915 34.2448C9.37218 33.6567 8.08282 32.3935 7.75625 30.9117C6.30841 33.254 5.07119 35.6912 4.0647 38.208L12.7981 43.9095L17.5183 52.9916L16.0078 61.3631L4.08859 70.3968H4.08888C5.091 72.8924 6.31948 75.3092 7.75567 77.6328C8.08078 76.1494 9.37102 74.8849 11.1915 74.2963C11.2148 74.2888 11.2378 74.2812 11.2608 74.2737C13.3795 73.5831 15.8173 73.9336 17.4402 75.2045L19.1016 76.5056L29.0404 68.7223L27.379 67.4212C25.7564 66.1505 25.3089 64.2414 26.1904 62.582C26.2001 62.5637 26.2097 62.5457 26.2193 62.5277C27.0932 60.8703 29.1336 59.7741 31.4234 59.7741H33.7734V48.7668H31.4234V48.767Z" fill="#0182FC"/>
<path d="M21.4382 54.2706C21.4382 46.19 13.9214 39.4844 4.06497 38.208C3.31221 40.0897 2.68821 42.0161 2.20113 43.9805C8.77613 44.5828 13.8779 48.9601 13.8779 54.2706C13.8779 59.3279 9.24952 63.5361 3.12985 64.4461L3.13072 64.4471C3.13043 64.4471 3.13014 64.4468 3.13014 64.4468C2.93554 64.4731 2.68675 64.5139 2.20026 64.5595C2.68734 66.5245 3.31104 68.4511 4.06351 70.3332C7.19545 69.9276 10.0911 68.9735 12.5848 67.6017C12.5848 67.6017 12.5848 67.6017 12.5845 67.6017H12.5848C17.9389 64.6565 21.4382 59.7837 21.4382 54.2706Z" fill="#0593FC"/>
<path d="M95.6635 96.4422V86.5075C118.362 86.5075 136.828 72.046 136.828 54.2706C136.828 36.4952 118.362 22.0336 95.6635 22.0336C72.965 22.0336 54.4985 36.4949 54.4985 54.2706H41.8128C41.8128 31.0172 65.9699 12.099 95.6635 12.099C125.357 12.099 149.514 31.0172 149.514 54.2706C149.514 77.524 125.357 96.4422 95.6635 96.4422V96.4422Z" fill="#FD3581"/>
<path d="M48.1557 49.3032C44.6526 49.3032 41.8129 51.5273 41.8129 54.2706C41.8129 68.6073 29.8002 80.788 13.2435 84.9644C15.8237 87.8593 18.7587 90.5458 21.9996 92.985C41.1023 86.4991 54.4988 71.587 54.4988 54.2706C54.4985 51.5273 51.6588 49.3032 48.1557 49.3032V49.3032Z" fill="#E41E7F"/>
<path d="M126.439 48.767C124.149 48.767 122.109 47.6711 121.235 46.0134C121.225 45.9954 121.216 45.9772 121.206 45.9591C120.325 44.2997 120.772 42.3909 122.395 41.1199L124.056 39.8189L114.117 32.0356L112.456 33.3366C110.833 34.6076 108.395 34.9578 106.276 34.2674C106.253 34.2599 106.23 34.2524 106.207 34.2448C104.091 33.5604 102.691 31.9626 102.691 30.1694V28.329H88.6352V30.1694C88.6352 31.9626 87.2354 33.5604 85.119 34.2448C85.0957 34.2524 85.0727 34.2599 85.0497 34.2674C82.9309 34.958 80.4932 34.6076 78.8703 33.3366L77.2089 32.0356L72.3818 45.4331L76.8675 69.0821L113.145 71.2272L124.055 68.7223L122.394 67.4213C120.771 66.1505 120.324 64.2415 121.205 62.582C121.215 62.5638 121.225 62.5458 121.234 62.5277C122.108 60.8703 124.149 59.7741 126.438 59.7741H128.788V48.7668H126.439V48.767ZM106.623 63.201C103.745 65.4545 99.4713 66.8407 95.4025 66.8407C91.1029 66.8407 87.2864 65.4328 84.1818 63.201C81.0659 60.9609 79.718 57.6276 79.5342 54.4139C79.3571 51.3183 81.4298 47.782 84.1818 45.6268C87.0595 43.3732 91.3339 41.9871 95.4025 41.9871C99.702 41.9871 103.519 43.3949 106.623 45.6268C109.739 47.8668 111.087 51.2001 111.271 54.4139C111.448 57.5094 109.375 61.0455 106.623 63.201Z" fill="#0182FC"/>
<path d="M95.6632 37.989C88.6408 37.989 82.4322 40.7157 78.6687 44.8908L77.8918 50.0054L82.6749 52.3034C83.8489 47.5224 89.2155 43.9096 95.6629 43.9096C102.97 43.9096 108.893 48.5483 108.893 54.2706C108.893 59.3279 104.265 63.5361 98.1452 64.4462L101.401 67.9944L107.6 67.6017C112.954 64.6567 116.454 59.784 116.454 54.2706C116.454 45.2786 107.146 37.989 95.6632 37.989V37.989Z" fill="#0593FC"/>
<path d="M124.004 68.6819C122.459 68.8161 120.889 68.8875 119.297 68.8875C112.959 68.8875 106.95 67.7917 101.554 65.8332C99.5907 66.4813 97.4705 66.8409 95.4025 66.8409C91.103 66.8409 87.2864 65.433 84.1819 63.2012C81.0659 60.9611 79.718 57.6278 79.5342 54.4141C79.4427 52.8164 79.954 51.1025 80.8454 49.5203C78.4118 45.3425 77.0548 40.6988 77.0548 35.8069C77.0548 34.5606 77.146 33.3309 77.3173 32.1204L77.2095 32.036L67.2707 39.8193L68.932 41.1204C70.5547 42.3913 71.0021 44.3001 70.1206 45.9596C70.111 45.9776 70.1014 45.9959 70.0918 46.0139C69.2178 47.6713 67.1774 48.7675 64.8877 48.7675H62.5379V59.7748H64.8877C67.1774 59.7748 69.2178 60.871 70.0918 62.5284C70.1014 62.5464 70.111 62.5647 70.1206 62.5827C71.0021 64.2419 70.555 66.151 68.932 67.4219L67.2707 68.723L77.2095 76.5063L78.8709 75.2052C80.4935 73.9343 82.9312 73.5841 85.0503 74.2744C85.0733 74.282 85.0966 74.2895 85.1196 74.297C87.236 74.9814 88.6358 76.5791 88.6358 78.3724V80.2128H102.692V78.3724C102.692 76.5793 104.091 74.9814 106.208 74.297C106.231 74.2895 106.254 74.282 106.277 74.2744C108.396 73.5839 110.833 73.9343 112.456 75.2052L114.118 76.5063L124.057 68.723L124.004 68.6819Z" fill="#0182FC"/>
<path d="M98.1458 64.4468C98.1455 64.4468 98.1449 64.4471 98.1443 64.4471C88.9586 65.8125 80.9078 59.4997 82.674 52.3039V52.3034C80.9742 49.994 79.621 47.5084 78.6681 44.8908C76.2779 47.5424 74.8729 50.7779 74.8729 54.2706C74.8729 63.2626 84.181 70.5522 95.6635 70.5522C100.106 70.5522 104.222 69.4604 107.6 67.6017C104.261 66.8493 101.091 65.7835 98.1458 64.4468V64.4468Z" fill="#0593FC"/>
<path d="M97.8423 77.9695L84.6742 88.2817C82.4223 90.0452 82.4223 92.9045 84.6742 94.6679L96.2336 103.72C99.9581 102.484 103.518 100.996 106.877 99.2834L96.9063 91.4747L105.997 84.3555L97.8423 77.9695Z" fill="#E41E7F"/>
</svg>
