<svg width="100" height="100" viewBox="0 0 100 100" fill="none" xmlns="http://www.w3.org/2000/svg">
<path d="M49.9999 44.3889C57.3024 44.3889 63.2222 38.5438 63.2222 31.3334C63.2222 24.123 57.3024 18.2778 49.9999 18.2778C42.6975 18.2778 36.7777 24.123 36.7777 31.3334C36.7777 38.5438 42.6975 44.3889 49.9999 44.3889Z" fill="white"/>
<path d="M29.9445 32.6388H31.2778V31.4443C31.2859 27.971 32.2658 24.5692 34.1067 21.6238C35.9475 18.6784 38.5759 16.307 41.6945 14.7777C40.7712 12.6514 39.2893 10.815 37.4062 9.46331C35.5231 8.11165 33.309 7.29527 30.9992 7.10088C28.6893 6.90648 26.37 7.34133 24.2874 8.35924C22.2049 9.37715 20.4369 10.9401 19.1713 12.8821C17.9057 14.8241 17.1897 17.0727 17.0993 19.3889C17.009 21.7052 17.5477 24.0026 18.6583 26.0373C19.7688 28.072 21.4097 29.7679 23.4066 30.9449C25.4036 32.1219 27.682 32.736 30 32.7221L29.9445 32.6388Z" fill="white"/>
<path d="M68.7778 31.3333V32.5278H70.1112C72.3983 32.5048 74.6369 31.8657 76.5914 30.6778C78.5459 29.4898 80.144 27.7969 81.2174 25.7772C82.2909 23.7576 82.8001 21.4859 82.6913 19.2013C82.5826 16.9167 81.8599 14.7036 80.5994 12.7951C79.339 10.8865 77.5873 9.35306 75.5288 8.35612C73.4703 7.35918 71.1811 6.93562 68.9021 7.13003C66.6232 7.32443 64.4388 8.12961 62.5789 9.46081C60.719 10.792 59.2524 12.6 58.3334 14.6945C61.4529 16.2178 64.0842 18.5833 65.9298 21.5236C67.7755 24.4639 68.762 27.8618 68.7778 31.3333Z" fill="white"/>
<path d="M61.9167 45.6945C67.4397 46.7876 72.7799 48.6581 77.7779 51.25C78.482 51.6368 79.1197 52.1338 79.6667 52.7222H94.4445V43.2222C94.4472 42.8579 94.3503 42.4997 94.1643 42.1864C93.9783 41.8731 93.7102 41.6165 93.389 41.4445C86.1894 37.6787 78.1806 35.7241 70.0556 35.75H68.2223C67.2596 39.6631 65.0456 43.1549 61.9167 45.6945Z" fill="white"/>
<path d="M18.1389 58.1111C18.1339 56.7122 18.5117 55.3385 19.2314 54.1389C19.9512 52.9393 20.9855 51.9594 22.2223 51.3056C27.2203 48.7137 32.5604 46.8432 38.0834 45.75C34.9697 43.2321 32.757 39.7718 31.7778 35.8889H29.9445C21.8196 35.8631 13.8107 37.8176 6.61115 41.5834C6.28995 41.7554 6.02186 42.012 5.83583 42.3253C5.6498 42.6386 5.5529 42.9968 5.5556 43.3611V61.1111H18.1389V58.1111Z" fill="white"/>
<path d="M59.6111 74.1387H76.1666V78.0276H59.6111V74.1387Z" fill="white"/>
<path d="M91.139 59.0553H72.0556V56.2775C72.0556 55.5408 71.763 54.8343 71.242 54.3133C70.7211 53.7924 70.0146 53.4997 69.2778 53.4997C68.5411 53.4997 67.8346 53.7924 67.3137 54.3133C66.7927 54.8343 66.5001 55.5408 66.5001 56.2775V59.0553H61.1112V51.1942C57.4565 50.4267 53.7343 50.0266 50.0001 49.9997C41.2327 49.9632 32.5907 52.0808 24.8334 56.1664C24.4879 56.3456 24.1986 56.6169 23.9977 56.9503C23.7967 57.2836 23.6918 57.666 23.6945 58.0553V73.6386H43.4445V90.5553C43.4445 91.292 43.7372 91.9985 44.2581 92.5195C44.779 93.0404 45.4856 93.3331 46.2223 93.3331H91.139C91.8757 93.3331 92.5822 93.0404 93.1031 92.5195C93.6241 91.9985 93.9167 91.292 93.9167 90.5553V61.8331C93.9167 61.0964 93.6241 60.3898 93.1031 59.8689C92.5822 59.3479 91.8757 59.0553 91.139 59.0553ZM88.3612 87.8331H49.0001V64.6108H66.5001V67.1386C66.5001 67.8753 66.7927 68.5819 67.3137 69.1028C67.8346 69.6237 68.5411 69.9164 69.2778 69.9164C70.0146 69.9164 70.7211 69.6237 71.242 69.1028C71.763 68.5819 72.0556 67.8753 72.0556 67.1386V64.6108H88.3612V87.8331Z" fill="white"/>
</svg>
