<svg width="19" height="17" viewBox="0 0 19 17" fill="none" xmlns="http://www.w3.org/2000/svg">
<path d="M12.0229 0H4.46241C2.0018 0 0 2.0643 0 4.60174V12.3984C0 14.9357 2.0018 17 4.46241 17H12.023C14.4835 17 16.4853 14.9357 16.4853 12.3984V4.60174C16.4853 2.0643 14.4835 0 12.0229 0V0ZM15.5188 12.3984C15.5188 14.3861 13.9506 16.0034 12.0229 16.0034H4.46241C2.53469 16.0034 0.966436 14.3861 0.966436 12.3984V4.60174C0.966436 2.61383 2.53469 0.996611 4.46241 0.996611H12.023C13.9506 0.996611 15.5188 2.61383 15.5188 4.60174V12.3984Z" fill="white"/>
<path d="M8.24262 3.85168C5.75711 3.85168 3.73506 5.93686 3.73506 8.49998C3.73506 11.0631 5.75711 13.1483 8.24262 13.1483C10.7281 13.1483 12.7502 11.0631 12.7502 8.49998C12.7502 5.93686 10.7281 3.85168 8.24262 3.85168V3.85168ZM8.24262 12.1517C6.29013 12.1517 4.7015 10.5136 4.7015 8.49998C4.7015 6.48653 6.29013 4.8483 8.24262 4.8483C10.1952 4.8483 11.7838 6.48653 11.7838 8.49998C11.7838 10.5136 10.1952 12.1517 8.24262 12.1517V12.1517Z" fill="white"/>
<path d="M12.858 2.20093C12.1235 2.20093 11.526 2.81713 11.526 3.57444C11.526 4.33189 12.1235 4.94809 12.858 4.94809C13.5925 4.94809 14.19 4.33189 14.19 3.57444C14.19 2.817 13.5925 2.20093 12.858 2.20093ZM12.858 3.95135C12.6565 3.95135 12.4925 3.78222 12.4925 3.57444C12.4925 3.36654 12.6565 3.19754 12.858 3.19754C13.0596 3.19754 13.2236 3.36654 13.2236 3.57444C13.2236 3.78222 13.0596 3.95135 12.858 3.95135Z" fill="white"/>
</svg>
