<svg width="47" height="47" viewBox="0 0 47 47" fill="none" xmlns="http://www.w3.org/2000/svg">
    <path d="M46.3608 39.8407L37.208 30.8842C36.7949 30.4799 36.2349 30.2554 35.6473 30.2554H34.1509C36.6847 27.0842 38.1903 23.0955 38.1903 18.7565C38.1903 8.43444 29.6434 0.0708008 19.0951 0.0708008C8.54691 0.0708008 0 8.43444 0 18.7565C0 29.0785 8.54691 37.4422 19.0951 37.4422C23.5293 37.4422 27.6053 35.9689 30.846 33.4894V34.9537C30.846 35.5287 31.0755 36.0767 31.4886 36.4809L40.6414 45.4375C41.5044 46.2819 42.8998 46.2819 43.7536 45.4375L46.3516 42.8951C47.2146 42.0507 47.2146 40.6852 46.3608 39.8407ZM19.0951 30.2554C12.6046 30.2554 7.34429 25.1168 7.34429 18.7565C7.34429 12.4051 12.5955 7.2576 19.0951 7.2576C25.5857 7.2576 30.846 12.3962 30.846 18.7565C30.846 25.1078 25.5948 30.2554 19.0951 30.2554Z" fill="black"/>
</svg>