<svg width="100" height="100" viewBox="0 0 100 100" fill="none" xmlns="http://www.w3.org/2000/svg">
<path d="M62.3748 40.0701C63.6003 40.0704 64.7829 40.5207 65.6982 41.3355C66.6135 42.1503 67.1977 43.2729 67.3398 44.4901L67.3748 45.0701V66.9101C67.4075 71.4694 65.6514 75.8597 62.4834 79.1388C59.3154 82.4178 54.9881 84.3241 50.4304 84.4485C45.8727 84.5728 41.4479 82.9053 38.1058 79.8039C34.7637 76.7025 32.7708 72.4144 32.5548 67.8601L32.5298 66.9101V45.0701C32.5301 43.8446 32.9805 42.662 33.7953 41.7467C34.6101 40.8314 35.7327 40.2472 36.9498 40.1051L37.5298 40.0701H62.3748ZM28.8748 40.0701C28.1473 41.3254 27.7036 42.7249 27.5748 44.1701L27.5298 45.0701V66.9101L27.5548 67.9601C27.7048 71.1751 28.5298 74.2101 29.8948 76.9351C27.7894 77.8193 25.5027 78.1857 23.2264 78.0036C20.9501 77.8214 18.7507 77.0961 16.8127 75.8883C14.8746 74.6805 13.2545 73.0256 12.0882 71.0623C10.922 69.099 10.2435 66.8847 10.1098 64.6051L10.0848 63.7651V45.0701C10.085 43.8454 10.5346 42.6634 11.3484 41.7482C12.1622 40.833 13.2836 40.2484 14.4998 40.1051L15.0848 40.0701H28.8698H28.8748ZM71.0348 40.0701H84.9548C86.1803 40.0704 87.3629 40.5207 88.2782 41.3355C89.1935 42.1503 89.7777 43.2729 89.9198 44.4901L89.9548 45.0701V63.7701C89.955 66.1346 89.368 68.4622 88.2465 70.5438C87.1251 72.6255 85.5042 74.3961 83.5295 75.6967C81.5548 76.9973 79.288 77.7872 76.9327 77.9955C74.5773 78.2038 72.2071 77.824 70.0348 76.8901C71.3785 74.1919 72.1609 71.2492 72.3348 68.2401L72.3748 66.9101V45.0701L72.3448 44.3251C72.2357 42.8259 71.7878 41.371 71.0348 40.0701ZM49.9448 14.9451C52.8987 14.9451 55.7316 16.1185 57.8202 18.2072C59.9089 20.2959 61.0823 23.1287 61.0823 26.0826C61.0823 29.0364 59.9089 31.8693 57.8202 33.958C55.7316 36.0467 52.8987 37.2201 49.9448 37.2201C46.991 37.2201 44.1581 36.0467 42.0694 33.958C39.9807 31.8693 38.8073 29.0364 38.8073 26.0826C38.8073 23.1287 39.9807 20.2959 42.0694 18.2072C44.1581 16.1185 46.991 14.9451 49.9448 14.9451ZM74.8798 18.0851C77.4173 18.0851 79.8508 19.0931 81.6451 20.8873C83.4393 22.6816 84.4473 25.1151 84.4473 27.6526C84.4473 30.19 83.4393 32.6236 81.6451 34.4178C79.8508 36.2121 77.4173 37.2201 74.8798 37.2201C72.3424 37.2201 69.9089 36.2121 68.1146 34.4178C66.3203 32.6236 65.3123 30.19 65.3123 27.6526C65.3123 25.1151 66.3203 22.6816 68.1146 20.8873C69.9089 19.0931 72.3424 18.0851 74.8798 18.0851ZM25.0848 18.0851C27.6223 18.0851 30.0558 19.0931 31.8501 20.8873C33.6443 22.6816 34.6523 25.1151 34.6523 27.6526C34.6523 30.19 33.6443 32.6236 31.8501 34.4178C30.0558 36.2121 27.6223 37.2201 25.0848 37.2201C22.5474 37.2201 20.1138 36.2121 18.3196 34.4178C16.5253 32.6236 15.5173 30.19 15.5173 27.6526C15.5173 25.1151 16.5253 22.6816 18.3196 20.8873C20.1138 19.0931 22.5474 18.0851 25.0848 18.0851Z" fill="white"/>
</svg>
