<svg width="19" height="16" viewBox="0 0 19 16" fill="none" xmlns="http://www.w3.org/2000/svg">
<g clip-path="url(#clip0_13:45)">
<path d="M18.3902 1.57809C18.1661 1.35138 17.8304 1.22656 17.4449 1.22656C17.2354 1.22656 17.0134 1.26303 16.7852 1.33517L1.25486 6.23901C0.430679 6.49917 0.319678 6.8896 0.326816 7.09917C0.333955 7.30874 0.471552 7.69338 1.31225 7.91464C1.31729 7.91592 1.32233 7.91719 1.32737 7.91835L4.54878 8.68091L6.29092 12.8017C6.52846 13.3635 7.06163 13.7125 7.68256 13.7125C8.07407 13.7125 8.45915 13.5768 8.79621 13.3202L10.7888 11.8026L13.6789 13.7275C13.6791 13.7277 13.6796 13.7279 13.6798 13.7281L13.7073 13.7464C13.7098 13.748 13.7125 13.7497 13.715 13.7514C14.0362 13.9575 14.3869 14.0663 14.7294 14.0664H14.7295C15.3987 14.0664 15.9316 13.6566 16.0869 13.0226L18.6315 2.6293C18.7337 2.21212 18.648 1.83883 18.3902 1.57809ZM5.62645 8.53606L11.8415 5.90971L7.97161 9.31112C7.9082 9.36682 7.86327 9.43501 7.84115 9.50923L7.09494 12.0095L5.62645 8.53606ZM8.06792 12.666C8.04216 12.6856 8.01626 12.703 7.99037 12.7191L8.68269 10.3997L9.94205 11.2386L8.06792 12.666ZM17.5779 2.45272L15.0333 12.8462C15.0088 12.9456 14.9305 13.1771 14.7294 13.1771C14.63 13.1771 14.5051 13.1323 14.3773 13.0509L11.1025 10.8697C11.102 10.8694 11.1015 10.869 11.1009 10.8688L9.15231 9.57083L14.7487 4.65194C14.9279 4.49447 14.9441 4.25329 14.7872 4.08031C14.6301 3.90733 14.3456 3.85291 14.1128 3.95133L4.90823 7.841L1.64301 7.06826L17.1686 2.16593C17.2998 2.12447 17.3913 2.11579 17.4449 2.11579C17.4778 2.11579 17.5363 2.11903 17.558 2.14115C17.5866 2.16998 17.623 2.26828 17.5779 2.45272Z" fill="white"/>
</g>
<defs>
<clipPath id="clip0_13:45">
<rect width="18.3469" height="15.1762" fill="white" transform="translate(0.326538 0.0705566)"/>
</clipPath>
</defs>
</svg>
