<svg width="15" height="18" viewBox="0 0 15 18" fill="none" xmlns="http://www.w3.org/2000/svg">
<g clip-path="url(#clip0_13:19)">
<rect width="13.9184" height="16.9973" transform="translate(0.326538 0.856445)" fill="#C0C0C0"/>
<path d="M14.1711 13.2643C14.1543 13.22 14.1386 13.1832 14.124 13.1537C13.8825 12.6226 13.421 11.9707 12.7398 11.1977L12.7254 11.18L12.7182 11.1714L12.711 11.1625H12.7036C12.3945 10.8026 12.1987 10.5606 12.1167 10.4367C11.9667 10.2007 11.9331 9.96179 12.0151 9.71973C12.073 9.53685 12.2906 9.15063 12.6673 8.56055C12.8655 8.24782 13.0224 7.99719 13.1383 7.80835C13.9742 6.45132 14.3365 5.58416 14.2254 5.20652L14.1822 5.11827C14.1532 5.06515 14.0783 5.01654 13.9577 4.97222C13.8367 4.92799 13.6822 4.92067 13.4937 4.95015L11.4067 4.96775C11.3729 4.95312 11.3246 4.95449 11.2617 4.97222C11.1989 4.98995 11.1675 4.99884 11.1675 4.99884L11.1312 5.02101L11.1023 5.04763C11.0782 5.06524 11.0516 5.09621 11.0226 5.14047C10.9937 5.18458 10.9696 5.23634 10.9503 5.29533C10.7231 6.00921 10.4648 6.67294 10.1748 7.28649C9.99605 7.65235 9.83188 7.96941 9.68195 8.23787C9.53222 8.50624 9.40661 8.70397 9.30523 8.83072C9.20371 8.95759 9.11208 9.05923 9.02979 9.136C8.94763 9.21281 8.88491 9.24527 8.84148 9.2334C8.79795 9.22152 8.75696 9.20974 8.71815 9.19797C8.65056 9.14484 8.59619 9.07258 8.5552 8.98114C8.51403 8.8897 8.48631 8.77461 8.47182 8.63597C8.4574 8.49722 8.44887 8.37789 8.44644 8.27755C8.44418 8.17734 8.44522 8.03559 8.45012 7.85271C8.45514 7.66974 8.4574 7.54594 8.4574 7.48103C8.4574 7.2568 8.46098 7.01344 8.46816 6.7509C8.47547 6.48836 8.48139 6.28034 8.48634 6.12709C8.49126 5.97369 8.49355 5.81139 8.49355 5.64029C8.49355 5.46919 8.48502 5.335 8.46816 5.23761C8.45151 5.14034 8.42595 5.04593 8.39227 4.9544C8.35839 4.86295 8.30879 4.79222 8.24371 4.74201C8.17851 4.69185 8.09744 4.65205 8.00096 4.62248C7.74488 4.55172 7.4188 4.51344 7.02256 4.50748C6.12402 4.49571 5.54666 4.56656 5.2906 4.71997C5.18915 4.78478 5.09735 4.87334 5.01526 4.98536C4.92828 5.11521 4.91614 5.18606 4.97894 5.19772C5.26885 5.25075 5.47409 5.37762 5.59488 5.5782L5.63841 5.68449C5.67227 5.76118 5.70608 5.89694 5.73991 6.0916C5.7737 6.28626 5.7955 6.50159 5.80509 6.73748C5.82921 7.16824 5.82921 7.53698 5.80509 7.84372C5.78091 8.15059 5.75806 8.38948 5.73626 8.56058C5.71446 8.73168 5.68187 8.87033 5.63841 8.97649C5.59488 9.08269 5.56592 9.1476 5.5514 9.17115C5.53691 9.19471 5.52483 9.20956 5.51523 9.21539C5.45244 9.24477 5.38713 9.25974 5.31954 9.25974C5.25184 9.25974 5.16976 9.21839 5.07316 9.13576C4.97658 9.05312 4.87635 8.93961 4.77246 8.79504C4.66857 8.65044 4.55141 8.44837 4.42092 8.18881C4.29053 7.92924 4.15525 7.62247 4.01514 7.26848L3.89922 7.01177C3.82675 6.84662 3.72776 6.60615 3.60215 6.29057C3.47646 5.97487 3.36536 5.66949 3.26878 5.37449C3.23018 5.2506 3.17218 5.15628 3.09489 5.09137L3.05862 5.06474C3.03451 5.04119 2.9958 5.01617 2.9427 4.98951C2.88953 4.96289 2.83404 4.94379 2.77602 4.93205L0.790418 4.94965C0.587515 4.94965 0.449843 5.00579 0.377353 5.1179L0.348341 5.17094C0.333848 5.20048 0.326538 5.24765 0.326538 5.31259C0.326538 5.3775 0.341031 5.45716 0.370043 5.55148C0.659904 6.38344 0.975122 7.18579 1.3157 7.95866C1.65627 8.73153 1.95222 9.3541 2.20338 9.8258C2.45458 10.2979 2.71063 10.7434 2.97154 11.1621C3.23244 11.5811 3.40513 11.8495 3.48963 11.9675C3.57423 12.0856 3.64068 12.174 3.68898 12.2329L3.87018 12.4453C3.98613 12.5869 4.15639 12.7565 4.38104 12.9541C4.60575 13.1519 4.85452 13.3465 5.12747 13.5384C5.40048 13.73 5.71809 13.8864 6.08046 14.0073C6.44279 14.1283 6.79545 14.1769 7.13848 14.1535H7.97187C8.14089 14.1356 8.26894 14.0707 8.35598 13.9587L8.38481 13.9144C8.4042 13.8791 8.42235 13.8244 8.4391 13.7508C8.45606 13.6771 8.46448 13.5958 8.46448 13.5075C8.45953 13.2538 8.47535 13.0252 8.51149 12.8217C8.54761 12.6182 8.58878 12.4648 8.63482 12.3615C8.68084 12.2583 8.73277 12.1712 8.79056 12.1006C8.84849 12.0298 8.88976 11.987 8.91397 11.9722C8.93803 11.9574 8.95725 11.9473 8.97174 11.9412C9.08769 11.8941 9.22414 11.9397 9.3813 12.0785C9.53834 12.2172 9.68563 12.3884 9.8234 12.5918C9.9611 12.7955 10.1265 13.024 10.3197 13.2776C10.5131 13.5313 10.6821 13.7199 10.827 13.844L10.9719 13.9502C11.0686 14.0211 11.1943 14.086 11.3489 14.145C11.5032 14.2039 11.6385 14.2187 11.7546 14.1892L13.6097 14.1539C13.7932 14.1539 13.9359 14.1168 14.0372 14.0432C14.1387 13.9694 14.199 13.8882 14.2184 13.7998C14.2378 13.7113 14.2388 13.611 14.2221 13.4988C14.2049 13.3868 14.188 13.3086 14.1711 13.2643Z" fill="white"/>
</g>
<defs>
<clipPath id="clip0_13:19">
<rect width="13.9184" height="16.9973" fill="white" transform="translate(0.326538 0.856445)"/>
</clipPath>
</defs>
</svg>
