<svg width="157" height="133" viewBox="0 0 157 133" fill="none" xmlns="http://www.w3.org/2000/svg">
<g clip-path="url(#clip0_21:53)">
<path d="M1.01837 8.35645H156.177V123.841H1.01837V8.35645Z" fill="#FFDD00"/>
<path d="M143.69 8.35645H156.177V123.841H143.69V8.35645Z" fill="#F7D200"/>
<path d="M1.01837 8.35645H156.177V23.5331H1.01837V8.35645Z" fill="#7B7B7F"/>
<path d="M143.69 8.35645H156.177V23.5331H143.69V8.35645Z" fill="#6B6B73"/>
<path d="M104.749 38.4177L21.9354 38.6126V108.841L104.749 38.4177Z" fill="#FF7DE9"/>
<path d="M92.2268 38.4474L21.9354 98.2219V108.841L104.749 38.4177L92.2268 38.4474Z" fill="#FF5EE4"/>
<path d="M137.602 56.0105C137.602 54.9109 136.554 54.0195 135.261 54.0195H72.2825C70.9894 54.0195 69.9412 54.9109 69.9412 56.0105C69.9412 57.1102 70.9894 58.0016 72.2825 58.0016H135.26C136.554 58.0016 137.602 57.1102 137.602 56.0105V56.0105Z" fill="#FFFEFE"/>
<path d="M135.26 64.7161H91.0143C89.7211 64.7161 88.6729 65.6074 88.6729 66.7071C88.6729 67.8068 89.7211 68.6982 91.0143 68.6982H135.261C136.554 68.6982 137.602 67.8068 137.602 66.7071C137.602 65.6074 136.554 64.7161 135.26 64.7161Z" fill="#FFFEFE"/>
<path d="M135.26 75.4126H109.746C108.453 75.4126 107.404 76.304 107.404 77.4037C107.404 78.5033 108.453 79.3947 109.746 79.3947H135.26C136.554 79.3947 137.602 78.5033 137.602 77.4037C137.602 76.304 136.554 75.4126 135.26 75.4126V75.4126Z" fill="#FFFEFE"/>
<path d="M110.695 94.6985H135.26V102.841H110.695V94.6985Z" fill="#FF7DE9"/>
<path d="M32.3935 49.7716C35.4066 49.7716 35.4117 45.7893 32.3935 45.7893C29.3804 45.7893 29.3753 49.7716 32.3935 49.7716Z" fill="#FFFEFE"/>
<path d="M32.3935 58.0016C35.4066 58.0016 35.4117 54.0192 32.3935 54.0192C29.3804 54.0192 29.3753 58.0016 32.3935 58.0016Z" fill="#FFFEFE"/>
<path d="M42.8519 49.7716C45.865 49.7716 45.8702 45.7893 42.8519 45.7893C39.8389 45.7893 39.8337 49.7716 42.8519 49.7716Z" fill="#FFFEFE"/>
<path d="M53.3104 49.7716C56.3235 49.7716 56.3287 45.7893 53.3104 45.7893C50.2971 45.7893 50.2922 49.7716 53.3104 49.7716Z" fill="#FFFEFE"/>
<path d="M42.8519 58.0016C45.865 58.0016 45.8702 54.0192 42.8519 54.0192C39.8389 54.0192 39.8337 58.0016 42.8519 58.0016Z" fill="#FFFEFE"/>
<path d="M32.3935 66.2315C35.4066 66.2315 35.4117 62.2491 32.3935 62.2491C29.3804 62.2491 29.3753 66.2315 32.3935 66.2315Z" fill="#FFFEFE"/>
<path d="M11.7645 17.9358C14.884 17.9358 14.8892 13.9535 11.7645 13.9535C8.64536 13.9537 8.64021 17.9358 11.7645 17.9358Z" fill="#FFFEFE"/>
<path d="M20.1418 17.9358C23.2612 17.9358 23.2664 13.9535 20.1418 13.9535C17.0223 13.9537 17.0171 17.9358 20.1418 17.9358Z" fill="#FFFEFE"/>
<path d="M28.519 17.9358C31.6384 17.9358 31.6436 13.9535 28.519 13.9535C25.3995 13.9537 25.3943 17.9358 28.519 17.9358Z" fill="#FFFEFE"/>
</g>
<defs>
<clipPath id="clip0_21:53">
<rect width="155.159" height="131.944" fill="white" transform="translate(0.951477 0.126526)"/>
</clipPath>
</defs>
</svg>
