<svg height="512" viewBox="0 0 64 64" width="512" xmlns="http://www.w3.org/2000/svg"><g id="website-tool-config-online-design"><path d="m56 30h2v2h-2z"/><path d="m52 30h2v2h-2z"/><path d="m16 39h16v2h-16z"/><path d="m16 43h16v2h-16z"/><path d="m16 51h16v2h-16z"/><path d="m16 55h16v2h-16z"/><path d="m16 47h16v2h-16z"/><path d="m53 38h-14a5.006 5.006 0 0 0 -5 5v10a5.006 5.006 0 0 0 5 5h14a5.006 5.006 0 0 0 5-5v-10a5.006 5.006 0 0 0 -5-5zm3 15a3 3 0 0 1 -3 3h-14a3 3 0 0 1 -3-3v-10a3 3 0 0 1 3-3h14a3 3 0 0 1 3 3z"/><path d="m10 38a4 4 0 1 0 4 4 4 4 0 0 0 -4-4zm0 6a2 2 0 1 1 2-2 2 2 0 0 1 -2 2z"/><path d="m10 50a4 4 0 1 0 4 4 4 4 0 0 0 -4-4zm0 6a2 2 0 1 1 2-2 2 2 0 0 1 -2 2z"/><path d="m62.12 10.11-2.4-.31 1.49-1.91a1.006 1.006 0 0 0 -.08-1.32l-2.7-2.7a1.006 1.006 0 0 0 -1.32-.08l-1.91 1.49-.31-2.4a1 1 0 0 0 -.99-.88h-3.8a1 1 0 0 0 -.99.88l-.31 2.4-1.91-1.49a1.006 1.006 0 0 0 -1.32.08l-2.7 2.7a1.006 1.006 0 0 0 -.08 1.32l1.49 1.91-.6.08-.91-.53a1.014 1.014 0 0 0 -1.22.17l-2.21 2.28a22.122 22.122 0 0 0 -3.6-.95l-.77-3.09a1 1 0 0 0 -.97-.76h-4a1 1 0 0 0 -.97.76l-.77 3.08a16.657 16.657 0 0 0 -3.6.96l-2.21-2.28a1 1 0 0 0 -1.22-.17l-.91.53-.6-.08 1.49-1.91a1.006 1.006 0 0 0 -.08-1.32l-2.7-2.7a1.006 1.006 0 0 0 -1.32-.08l-1.91 1.49-.31-2.4a1 1 0 0 0 -.99-.88h-3.8a1 1 0 0 0 -.99.88l-.31 2.4-1.91-1.49a1.006 1.006 0 0 0 -1.32.08l-2.7 2.7a1.006 1.006 0 0 0 -.08 1.32l1.49 1.91-2.4.31a1 1 0 0 0 -.88.99v3.8a1 1 0 0 0 .88.99l2.4.31-1.49 1.91a1.006 1.006 0 0 0 .08 1.32l2.7 2.7a1 1 0 0 0 1.32.08l1.91-1.49.31 2.4a1 1 0 0 0 .99.88h1.02l.61.59a7.244 7.244 0 0 0 -.52 1.41h-6.21a3.009 3.009 0 0 0 -3 3v30a3.009 3.009 0 0 0 3 3h54a3.009 3.009 0 0 0 3-3v-30a3.009 3.009 0 0 0 -3-3h-6.38c-.13-.45-.27-.9-.42-1.34l.68-.66h1.02a1 1 0 0 0 .99-.88l.31-2.4 1.91 1.49a1 1 0 0 0 1.32-.08l2.7-2.7a1.006 1.006 0 0 0 .08-1.32l-1.49-1.91 2.4-.31a1 1 0 0 0 .88-.99v-3.8a1 1 0 0 0 -.88-.99zm-51.6 9.1a1.055 1.055 0 0 0 -.53-.42 4.26 4.26 0 0 1 -.7-.28.98.98 0 0 0 -1.04.11l-1.89 1.47-1.45-1.45 1.47-1.89a.982.982 0 0 0 .11-1.04 4.26 4.26 0 0 1 -.28-.7 1.019 1.019 0 0 0 -.83-.69l-2.38-.3v-2.04l2.38-.3a1.019 1.019 0 0 0 .83-.69 4.26 4.26 0 0 1 .28-.7.982.982 0 0 0 -.11-1.04l-1.47-1.89 1.45-1.45 1.89 1.47a.98.98 0 0 0 1.04.11 4.26 4.26 0 0 1 .7-.28 1.019 1.019 0 0 0 .69-.83l.3-2.38h2.04l.3 2.38a1.019 1.019 0 0 0 .69.83 4.26 4.26 0 0 1 .7.28.98.98 0 0 0 1.04-.11l1.89-1.47 1.45 1.45-1.47 1.89a.982.982 0 0 0 -.11 1.04 4.26 4.26 0 0 1 .28.7 1.148 1.148 0 0 0 .14.27l-.16.09a.991.991 0 0 0 -.46 1.14l.87 3.06a21.183 21.183 0 0 0 -1.74 1.66c-.31.31-.6.63-.89.97l-1.8-.51a5 5 0 1 0 -2.49.26zm1.48-3.21a3 3 0 1 1 3-3 3.009 3.009 0 0 1 -3 3zm48 43a1 1 0 0 1 -1 1h-54a1 1 0 0 1 -1-1v-23h56zm-1-31a1 1 0 0 1 1 1v5h-56v-5a1 1 0 0 1 1-1zm-37.39-2a12 12 0 0 1 20.78 0zm28.72-2.32a1 1 0 0 0 -.23 1.09c.16.4.31.81.44 1.23h-5.9a13.986 13.986 0 0 0 -25.28 0h-6.07a6.374 6.374 0 0 1 .54-1.08 1.015 1.015 0 0 0 -.16-1.24l-2.19-2.12 1.22-2.12 2.94.84a.988.988 0 0 0 1.05-.34c.39-.48.77-.92 1.19-1.35a20.7 20.7 0 0 1 2.06-1.9.983.983 0 0 0 .34-1.05l-.84-2.94 2.12-1.22 2.12 2.19a1 1 0 0 0 1.09.23 15.908 15.908 0 0 1 4.43-1.18.992.992 0 0 0 .84-.75l.74-2.97h2.44l.74 2.97a.993.993 0 0 0 .82.75 19.939 19.939 0 0 1 4.45 1.18 1 1 0 0 0 1.09-.23l2.12-2.19 2.12 1.22-.84 2.94a.983.983 0 0 0 .34 1.05 45.144 45.144 0 0 1 3.25 3.25.988.988 0 0 0 1.05.34l2.94-.84 1.22 2.12zm-1.33-10.68a3 3 0 1 1 3 3 3.009 3.009 0 0 1 -3-3zm12 1.02-2.38.3a1.019 1.019 0 0 0 -.83.69 4.26 4.26 0 0 1 -.28.7.982.982 0 0 0 .11 1.04l1.47 1.89-1.45 1.45-1.89-1.47a.982.982 0 0 0 -1.04-.11 4.26 4.26 0 0 1 -.7.28 1.055 1.055 0 0 0 -.53.42l-.74-1.28a5 5 0 1 0 -2.49-.26l-1.83.52c-.66-.72-1.82-1.9-2.6-2.62l.87-3.08a.991.991 0 0 0 -.46-1.14l-.16-.09a1.148 1.148 0 0 0 .14-.27 4.26 4.26 0 0 1 .28-.7.982.982 0 0 0 -.11-1.04l-1.47-1.89 1.45-1.45 1.89 1.47a.982.982 0 0 0 1.04.11 4.26 4.26 0 0 1 .7-.28 1.019 1.019 0 0 0 .69-.83l.3-2.38h2.04l.3 2.38a1.019 1.019 0 0 0 .69.83 4.26 4.26 0 0 1 .7.28.982.982 0 0 0 1.04-.11l1.89-1.47 1.45 1.45-1.47 1.89a.982.982 0 0 0 -.11 1.04 4.26 4.26 0 0 1 .28.7 1.019 1.019 0 0 0 .83.69l2.38.3z"/></g></svg>